<svg xmlns="http://www.w3.org/2000/svg" width="2200" height="2200"><path style="fill:#000;stroke:none" d="M0 0L0 2200L2200 2200L2200 0L0 0z"/><path style="fill:#181818;stroke:none" d="M1089 583C1094.22 585.189 1101.38 584 1107 584L1145 584C1139.78 581.811 1132.62 583 1127 583L1089 583z"/><path style="fill:#3f3f3f;stroke:none" d="M1088 584L1088 1375C1090.29 1369.54 1089 1361.89 1089 1356L1089 1317L1089 1179L1089 757L1089 636L1089 601C1089 595.65 1090.09 588.969 1088 584z"/><path style="fill:#fff;stroke:none" d="M1089 584L1089 1376C1052.43 1356.76 1012.25 1343.16 971 1339.17C962.786 1338.37 954.25 1339 946 1339C882.898 1339 819.949 1359.92 776.089 1407C737.565 1448.36 721.547 1503.48 726.83 1559C730.433 1596.86 742.146 1633.19 768.17 1662C791.747 1688.1 822.284 1704.5 856 1713.42C877.989 1719.23 900.404 1720 923 1720C988.135 1720 1056.79 1703.8 1103.99 1656C1131.54 1628.08 1148.06 1592.31 1158.57 1555C1170.13 1514 1171 1472.28 1171 1430L1171 1338L1171 978L1171 828L1171 788C1171 783.715 1169.55 776.034 1172.03 772.318C1175.22 767.537 1189.12 769.935 1194 770.576C1203.24 771.788 1212.71 770.632 1222 771.039C1232.54 771.501 1243.62 773.552 1254 775.385C1306.26 784.62 1359.23 805.319 1390.25 851C1397.78 862.086 1403.53 874.422 1408.06 887C1413.97 903.398 1415.2 920.825 1416.83 938C1417.69 947.049 1417.56 955.53 1421.63 964C1430.19 981.791 1455.98 986.844 1473 978.968C1482.65 974.503 1487.45 965.673 1490.67 956C1496.78 937.646 1497 917.17 1497 898C1497 883.266 1495.68 868.683 1495.04 854C1492.33 792.177 1483.16 725.074 1443.33 675C1416.92 641.781 1380.34 623.249 1341 609.925C1297.94 595.344 1252.01 590.993 1207 587.911C1167.64 585.215 1128.53 584 1089 584z"/><path style="fill:#717171;stroke:none" d="M1145 584C1151.2 586.603 1160.3 585 1167 585C1160.8 582.397 1151.7 584 1145 584z"/><path style="fill:#d6d6d6;stroke:none" d="M1167 585C1171.22 586.769 1176.46 586 1181 586C1176.78 584.231 1171.54 585 1167 585z"/><path style="fill:#141414;stroke:none" d="M1181 585C1184.7 586.552 1189.02 586 1193 586C1189.3 584.448 1184.98 585 1181 585z"/><path style="fill:#6a6a6a;stroke:none" d="M1193 586C1196.16 587.327 1199.59 587 1203 587C1199.84 585.673 1196.41 586 1193 586z"/><path style="fill:#d1d1d1;stroke:none" d="M1203 587C1205.89 588.213 1208.87 587.998 1212 588C1209.11 586.787 1206.13 587.002 1203 587z"/><path style="fill:#a0a0a0;stroke:none" d="M1212 587L1213 588L1212 587z"/><path style="fill:#121212;stroke:none" d="M1213 587C1215.89 588.213 1218.87 587.998 1222 588C1219.11 586.787 1216.13 587.002 1213 587z"/><path style="fill:#616161;stroke:none" d="M1222 588C1224.33 588.984 1226.46 588.981 1229 589C1226.67 588.016 1224.54 588.019 1222 588z"/><path style="fill:#363636;stroke:none" d="M1229 588L1230 589L1229 588z"/><path style="fill:#cbcbcb;stroke:none" d="M1230 589C1232.05 589.874 1233.75 589.953 1236 590C1233.95 589.126 1232.25 589.047 1230 589z"/><path style="fill:#454545;stroke:none" d="M1236 589L1237 590L1236 589z"/><path style="fill:#5c5c5c;stroke:none" d="M1243 590C1244.77 590.779 1246.04 590.912 1248 591C1246.23 590.221 1244.96 590.088 1243 590z"/><path style="fill:#c6c6c6;stroke:none" d="M1249 591C1250.77 591.779 1252.04 591.912 1254 592C1252.23 591.221 1250.96 591.088 1249 591z"/><path style="fill:#555;stroke:none" d="M1259 592C1261.05 592.874 1262.75 592.953 1265 593C1262.95 592.126 1261.25 592.047 1259 592z"/><path style="fill:#bfbfbf;stroke:none" d="M1265 593C1266.51 593.683 1267.31 593.826 1269 594C1267.49 593.317 1266.69 593.174 1265 593z"/><path style="fill:#444;stroke:none" d="M1269 593L1270 594L1269 593z"/><path style="fill:#8d8d8d;stroke:none" d="M1273 594L1274 595L1273 594z"/><path style="fill:#4d4d4d;stroke:none" d="M1274 594C1275.51 594.683 1276.31 594.826 1278 595C1276.49 594.317 1275.69 594.174 1274 594z"/><path style="fill:#b9b9b9;stroke:none" d="M1278 595C1279.51 595.683 1280.31 595.826 1282 596C1280.49 595.317 1279.69 595.174 1278 595z"/><path style="fill:#454545;stroke:none" d="M1286 596C1287.51 596.683 1288.31 596.826 1290 597C1288.49 596.317 1287.69 596.174 1286 596z"/><path style="fill:#b6b6b6;stroke:none" d="M1290 597C1291.25 597.685 1291.55 597.749 1293 598C1291.75 597.315 1291.45 597.251 1290 597z"/><path style="fill:#747474;stroke:none" d="M1296 598L1297 599L1296 598z"/><path style="fill:#464646;stroke:none" d="M1297 598C1298.25 598.685 1298.55 598.749 1300 599C1298.75 598.315 1298.45 598.251 1297 598z"/><path style="fill:#aeaeae;stroke:none" d="M1300 599C1301.25 599.685 1301.55 599.749 1303 600C1301.75 599.315 1301.45 599.251 1300 599z"/><path style="fill:#868686;stroke:none" d="M1306 600L1307 601L1306 600z"/><path style="fill:#3f3f3f;stroke:none" d="M1307 600C1308.25 600.685 1308.55 600.749 1310 601C1308.75 600.315 1308.45 600.251 1307 600z"/><path style="fill:#a2a2a2;stroke:none" d="M1310.67 601.333C1310.22 601.778 1311.28 601.722 1311.33 601.667C1311.78 601.222 1310.72 601.278 1310.67 601.333z"/><path style="fill:#404040;stroke:none" d="M1312 601L1313 602L1312 601z"/><path style="fill:#343434;stroke:none" d="M1316.67 602.333C1316.22 602.777 1317.28 602.722 1317.33 602.667C1317.78 602.222 1316.72 602.278 1316.67 602.333z"/><path style="fill:#9a9a9a;stroke:none" d="M1319.67 603.333C1319.22 603.778 1320.28 603.722 1320.33 603.667C1320.78 603.222 1319.72 603.278 1319.67 603.333z"/><path style="fill:#2a2a2a;stroke:none" d="M1324.67 604.333C1324.22 604.777 1325.28 604.722 1325.33 604.667C1325.78 604.222 1324.72 604.278 1324.67 604.333z"/><path style="fill:#868686;stroke:none" d="M1326.67 605.333C1326.22 605.777 1327.28 605.722 1327.33 605.667C1327.78 605.222 1326.72 605.278 1326.67 605.333z"/><path style="fill:#b0b0b0;stroke:none" d="M1330 606L1331 607L1330 606z"/><path style="fill:#1b1b1b;stroke:none" d="M1331.67 606.333C1331.22 606.778 1332.28 606.722 1332.33 606.667C1332.78 606.223 1331.72 606.278 1331.67 606.333z"/><path style="fill:#8f8f8f;stroke:none" d="M1333.67 607.333C1333.22 607.778 1334.28 607.722 1334.33 607.667C1334.78 607.222 1333.72 607.278 1333.67 607.333z"/><path style="fill:#323232;stroke:none" d="M1335 607L1336 608L1335 607z"/><path style="fill:#737373;stroke:none" d="M1337 608L1338 609L1337 608z"/><path style="fill:#bfbfbf;stroke:none" d="M1339 609L1340 610L1339 609z"/><path style="fill:#868686;stroke:none" d="M1340 609L1341 610L1340 609z"/><path style="fill:#393939;stroke:none" d="M1341 609L1342 610L1341 609z"/><path style="fill:#ddd;stroke:none" d="M1342.67 610.333C1342.22 610.777 1343.28 610.722 1343.33 610.667C1343.78 610.223 1342.72 610.277 1342.67 610.333z"/><path style="fill:#1f1f1f;stroke:none" d="M1344.67 610.333C1344.22 610.777 1345.28 610.722 1345.33 610.667C1345.78 610.223 1344.72 610.278 1344.67 610.333z"/><path style="fill:#7b7b7b;stroke:none" d="M1346.67 611.333C1346.22 611.778 1347.28 611.722 1347.33 611.667C1347.78 611.223 1346.72 611.278 1346.67 611.333z"/><path style="fill:#d9d9d9;stroke:none" d="M1348.67 612.333C1348.22 612.778 1349.28 612.722 1349.33 612.667C1349.78 612.223 1348.72 612.278 1348.67 612.333z"/><path style="fill:#464646;stroke:none" d="M1350 612L1351 613L1350 612z"/><path style="fill:#9d9d9d;stroke:none" d="M1352 613L1353 614L1352 613z"/><path style="fill:#434343;stroke:none" d="M1353 613L1354 614L1353 613z"/><path style="fill:#939393;stroke:none" d="M1355 614L1356 615L1355 614z"/><path style="fill:#d3d3d3;stroke:none" d="M1357 615L1358 616L1357 615z"/><path style="fill:#676767;stroke:none" d="M1358 615L1359 616L1358 615z"/><path style="fill:#c6c6c6;stroke:none" d="M1359.67 616.333C1359.22 616.778 1360.28 616.722 1360.33 616.667C1360.78 616.222 1359.72 616.278 1359.67 616.333z"/><path style="fill:#9d9d9d;stroke:none" d="M1362 617L1363 618L1362 617z"/><path style="fill:#666;stroke:none" d="M1363 617L1364 618L1363 617z"/><path style="fill:#9f9f9f;stroke:none" d="M1365 618L1366 619L1365 618z"/><path style="fill:#5d5d5d;stroke:none" d="M1367.67 619.333C1367.22 619.777 1368.28 619.722 1368.33 619.667C1368.78 619.223 1367.72 619.278 1367.67 619.333z"/><path style="fill:#636363;stroke:none" d="M1370 620L1371 621L1370 620z"/><path style="fill:#484848;stroke:none" d="M1372.67 621.333C1372.22 621.778 1373.28 621.722 1373.33 621.667C1373.78 621.222 1372.72 621.278 1372.67 621.333z"/><path style="fill:silver;stroke:none" d="M1374 622L1375 623L1374 622z"/><path style="fill:#2b2b2b;stroke:none" d="M1375 622L1376 623L1375 622z"/><path style="fill:#acacac;stroke:none" d="M1376 623L1377 624L1376 623z"/><path style="fill:#464646;stroke:none" d="M1377 623L1378 624L1377 623z"/><path style="fill:#b7b7b7;stroke:none" d="M1378 624L1379 625L1378 624z"/><path style="fill:#303030;stroke:none" d="M1379 624L1380 625L1379 624z"/><path style="fill:#acacac;stroke:none" d="M1380 625L1381 626L1380 625z"/><path style="fill:#3e3e3e;stroke:none" d="M1381 625L1382 626L1381 625z"/><path style="fill:#b6b6b6;stroke:none" d="M1382 626L1383 627L1382 626z"/><path style="fill:#323232;stroke:none" d="M1383 626L1384 627L1383 626z"/><path style="fill:#b1b1b1;stroke:none" d="M1384 627L1385 628L1384 627z"/><path style="fill:#3c3c3c;stroke:none" d="M1385 627L1386 628L1385 627z"/><path style="fill:#b3b3b3;stroke:none" d="M1386 628L1387 629L1386 628z"/><path style="fill:#363636;stroke:none" d="M1387 628L1388 629L1387 628z"/><path style="fill:#b7b7b7;stroke:none" d="M1388 629L1389 630L1388 629z"/><path style="fill:#c7c7c7;stroke:none" d="M1389 630L1390 631L1389 630z"/><path style="fill:#747474;stroke:none" d="M1390 630L1391 631L1390 630z"/><path style="fill:#c5c5c5;stroke:none" d="M1391 631L1392 632L1391 631z"/><path style="fill:#464646;stroke:none" d="M1392 631L1393 632L1392 631z"/><path style="fill:#bbb;stroke:none" d="M1393 632L1394 633L1393 632z"/><path style="fill:#7a7a7a;stroke:none" d="M1395 633L1396 634L1395 633z"/><path style="fill:#3e3e3e;stroke:none" d="M1397 634L1398 635L1397 634z"/><path style="fill:#a0a0a0;stroke:none" d="M1398 635L1399 636L1398 635z"/><path style="fill:#303030;stroke:none" d="M1399 635L1400 636L1399 635z"/><path style="fill:#838383;stroke:none" d="M1400 636L1401 637L1400 636z"/><path style="fill:#3c3c3c;stroke:none" d="M1402 637L1403 638L1402 637z"/><path style="fill:#878787;stroke:none" d="M1403 638L1404 639L1403 638z"/><path style="fill:#c6c6c6;stroke:none" d="M1404 639L1405 640L1404 639z"/><path style="fill:#888;stroke:none" d="M1406 640L1407 641L1406 640z"/><path style="fill:#848484;stroke:none" d="M1407 641L1408 642L1407 641z"/><path style="fill:#4c4c4c;stroke:none" d="M1409 642L1410 643L1409 642z"/><path style="fill:#434343;stroke:none" d="M1410 643L1411 644L1410 643z"/><path style="fill:#c8c8c8;stroke:none" d="M1411 644L1412 645L1411 644z"/><path style="fill:#cacaca;stroke:none" d="M1412 645L1413 646L1412 645z"/><path style="fill:#878787;stroke:none" d="M1414 646L1415 647L1414 646z"/><path style="fill:#8b8b8b;stroke:none" d="M1415 647L1416 648L1415 647z"/><path style="fill:#4d4d4d;stroke:none" d="M1417 648L1418 649L1417 648z"/><path style="fill:#3f3f3f;stroke:none" d="M1418 649L1419 650L1418 649z"/><path style="fill:#626262;stroke:none" d="M1419 650L1420 651L1419 650z"/><path style="fill:#ccc;stroke:none" d="M1420 651L1421 652L1420 651z"/><path style="fill:#c9c9c9;stroke:none" d="M1421 652L1422 653L1421 652z"/><path style="fill:#cbcbcb;stroke:none" d="M1422 653L1423 654L1422 653M1423 654L1424 655L1423 654z"/><path style="fill:#c6c6c6;stroke:none" d="M1424 655L1425 656L1424 655z"/><path style="fill:#898989;stroke:none" d="M1426 656L1427 657L1426 656z"/><path style="fill:#939393;stroke:none" d="M1427 657L1428 658L1427 657z"/><path style="fill:#888;stroke:none" d="M1428 658L1429 659L1428 658z"/><path style="fill:#949494;stroke:none" d="M1429 659L1430 660L1429 659z"/><path style="fill:#898989;stroke:none" d="M1430 660L1431 661L1430 660z"/><path style="fill:#949494;stroke:none" d="M1431 661L1432 662L1431 661z"/><path style="fill:#898989;stroke:none" d="M1432 662L1433 663L1432 662z"/><path style="fill:#959595;stroke:none" d="M1433 663L1434 664L1433 663z"/><path style="fill:#6b6b6b;stroke:none" d="M1434 664L1435 665L1434 664z"/><path style="fill:#cacaca;stroke:none" d="M1434 665L1435 666L1434 665z"/><path style="fill:#d0d0d0;stroke:none" d="M1435 666L1436 667L1435 666z"/><path style="fill:#c6c6c6;stroke:none" d="M1436 667L1437 668L1436 667z"/><path style="fill:#cdcdcd;stroke:none" d="M1437 668L1438 669L1437 668z"/><path style="fill:#c5c5c5;stroke:none" d="M1438 669L1439 670L1438 669z"/><path style="fill:#c9c9c9;stroke:none" d="M1439 670L1440 671L1439 670z"/><path style="fill:#4a4a4a;stroke:none" d="M1440 671L1441 672L1440 671z"/><path style="fill:#3b3b3b;stroke:none" d="M1441 672L1442 673L1441 672z"/><path style="fill:#4b4b4b;stroke:none" d="M1442 673L1443 674L1442 673z"/><path style="fill:#868686;stroke:none" d="M1443 675L1444 676L1443 675z"/><path style="fill:#8b8b8b;stroke:none" d="M1444 676L1445 677L1444 676z"/><path style="fill:#878787;stroke:none" d="M1445 677L1446 678L1445 677z"/><path style="fill:#c1c1c1;stroke:none" d="M1446 679L1447 680L1446 679z"/><path style="fill:#c9c9c9;stroke:none" d="M1447 680L1448 681L1447 680z"/><path style="fill:#434343;stroke:none" d="M1448 681L1449 682L1448 681z"/><path style="fill:#2c2c2c;stroke:none" d="M1449 682L1450 683L1449 682z"/><path style="fill:#7a7a7a;stroke:none" d="M1449 683L1450 684L1449 683z"/><path style="fill:#8e8e8e;stroke:none" d="M1450 684L1451 685L1450 684z"/><path style="fill:#454545;stroke:none" d="M1451 685L1452 686L1451 685z"/><path style="fill:#c4c4c4;stroke:none" d="M1451 686L1452 687L1451 686z"/><path style="fill:#adadad;stroke:none" d="M1452 687L1453 688L1452 687z"/><path style="fill:#2e2e2e;stroke:none" d="M1453 688L1454 689L1453 688z"/><path style="fill:#818181;stroke:none" d="M1453 689L1454 690L1453 689z"/><path style="fill:#828282;stroke:none" d="M1454 690L1455 691L1454 690z"/><path style="fill:#d0d0d0;stroke:none" d="M1454 691L1455 692L1454 691z"/><path style="fill:#bfbfbf;stroke:none" d="M1455 692L1456 693L1455 692z"/><path style="fill:#3c3c3c;stroke:none" d="M1456 693L1457 694L1456 693z"/><path style="fill:#c1c1c1;stroke:none" d="M1456 694L1457 695L1456 694z"/><path style="fill:#767676;stroke:none" d="M1457 695L1458 696L1457 695z"/><path style="fill:#afafaf;stroke:none" d="M1458 697L1459 698L1458 697z"/><path style="fill:#303030;stroke:none" d="M1459 698L1460 699L1459 698z"/><path style="fill:#777;stroke:none" d="M1460 700L1461 701L1460 700z"/><path style="fill:#6d6d6d;stroke:none" d="M1461 702L1462 703L1461 702z"/><path style="fill:#727272;stroke:none" d="M1462 704L1463 705L1462 704z"/><path style="fill:#707070;stroke:none" d="M1463 706L1464 707L1463 706z"/><path style="fill:#6f6f6f;stroke:none" d="M1464 708L1465 709L1464 708z"/><path style="fill:#6b6b6b;stroke:none" d="M1465 710L1466 711L1465 710z"/><path style="fill:#666;stroke:none" d="M1466 712L1467 713L1466 712z"/><path style="fill:#777;stroke:none" d="M1467 714L1468 715L1467 714z"/><path style="fill:#c4c4c4;stroke:none" d="M1467 715L1468 716L1467 715z"/><path style="fill:#626262;stroke:none" d="M1468 716L1469 717L1468 716z"/><path style="fill:#8e8e8e;stroke:none" d="M1469.33 718.667C1469.28 718.722 1469.22 719.778 1469.67 719.333C1469.72 719.278 1469.78 718.222 1469.33 718.667z"/><path style="fill:#a5a5a5;stroke:none" d="M1470 721L1471 722L1470 721z"/><path style="fill:#585858;stroke:none" d="M1471 723L1472 724L1471 723z"/><path style="fill:#a6a6a6;stroke:none" d="M1471 724L1472 725L1471 724z"/><path style="fill:#5a5a5a;stroke:none" d="M1472 726L1473 727L1472 726z"/><path style="fill:#9f9f9f;stroke:none" d="M1473.33 728.667C1473.28 728.722 1473.22 729.778 1473.67 729.333C1473.72 729.278 1473.78 728.222 1473.33 728.667z"/><path style="fill:#969696;stroke:none" d="M1474 731L1475 732L1474 731z"/><path style="fill:#4f4f4f;stroke:none" d="M1475 733L1476 734L1475 733z"/><path style="fill:#9f9f9f;stroke:none" d="M1475 734L1476 735L1475 734z"/><path style="fill:#d0d0d0;stroke:none" d="M1475 735L1476 736L1475 735z"/><path style="fill:#373737;stroke:none" d="M1476 736L1477 737L1476 736z"/><path style="fill:#626262;stroke:none" d="M1476 737L1477 738L1476 737z"/><path style="fill:#484848;stroke:none" d="M1477 739L1478 740L1477 739z"/><path style="fill:#cfcfcf;stroke:none" d="M1477.33 740.667C1477.28 740.722 1477.22 741.778 1477.67 741.333C1477.72 741.278 1477.78 740.222 1477.33 740.667z"/><path style="fill:#3a3a3a;stroke:none" d="M1478 742L1479 743L1478 742z"/><path style="fill:#818181;stroke:none" d="M1478 743L1479 744L1478 743z"/><path style="fill:#7d7d7d;stroke:none" d="M1479 746L1480 747L1479 746z"/><path style="fill:#b1b1b1;stroke:none" d="M1479 747L1480 748L1479 747z"/><path style="fill:#424242;stroke:none" d="M1480.33 748.667C1480.28 748.722 1480.22 749.778 1480.67 749.333C1480.72 749.278 1480.78 748.222 1480.33 748.667z"/><path style="fill:#bdbdbd;stroke:none" d="M1480 750L1481 751L1480 750z"/><path style="fill:#b3b3b3;stroke:none" d="M1481 753L1481 756C1481.7 754.446 1481.7 754.554 1481 753z"/><path style="fill:#444;stroke:none" d="M1482 756L1483 757L1482 756z"/><path style="fill:#6f6f6f;stroke:none" d="M1482 757L1483 758L1482 757z"/><path style="fill:#bbb;stroke:none" d="M1483.33 761.667C1483.28 761.722 1483.22 762.778 1483.67 762.333C1483.72 762.278 1483.78 761.222 1483.33 761.667z"/><path style="fill:#515151;stroke:none" d="M1484 763L1484 766C1484.7 764.447 1484.7 764.553 1484 763z"/><path style="fill:#a0a0a0;stroke:none" d="M1484 766L1485 767L1484 766z"/><path style="fill:#c4c4c4;stroke:none" d="M1485 769L1485 773C1485.71 771.24 1485.71 770.76 1485 769z"/><path style="fill:#959595;stroke:none" d="M1172 770C1178.2 772.603 1187.3 771 1194 771C1187.8 768.397 1178.7 770 1172 770z"/><path style="fill:#a3a3a3;stroke:none" d="M1171 771L1171 1473C1173.09 1468.03 1172 1461.35 1172 1456L1172 1421L1172 1299L1172 925L1172 817L1172 786C1172 781.191 1172.88 775.469 1171 771z"/><path style="fill:#2e2e2e;stroke:none" d="M1194 771C1200.44 773.704 1210.03 772 1217 772C1210.56 769.296 1200.97 771 1194 771z"/><path style="fill:#ededed;stroke:none" d="M1217 771C1220.16 772.327 1223.59 772 1227 772C1223.84 770.673 1220.41 771 1217 771z"/><path style="fill:#9c9c9c;stroke:none" d="M1227 772C1229.33 772.984 1231.46 772.981 1234 773C1231.67 772.016 1229.54 772.019 1227 772z"/><path style="fill:#363636;stroke:none" d="M1234 773C1236.05 773.874 1237.75 773.953 1240 774C1237.95 773.126 1236.25 773.047 1234 773z"/><path style="fill:#b2b2b2;stroke:none" d="M1240 773L1241 774L1240 773z"/><path style="fill:#535353;stroke:none" d="M1486 773L1486 776C1486.7 774.447 1486.7 774.554 1486 773z"/><path style="fill:#a6a6a6;stroke:none" d="M1245 774C1246.77 774.779 1248.04 774.912 1250 775C1248.23 774.221 1246.96 774.088 1245 774z"/><path style="fill:#3c3c3c;stroke:none" d="M1251 775C1252.25 775.685 1252.55 775.749 1254 776C1252.75 775.315 1252.45 775.251 1251 775z"/><path style="fill:#969696;stroke:none" d="M1254 775L1255 776L1254 775z"/><path style="fill:#4d4d4d;stroke:none" d="M1258 776L1259 777L1258 776z"/><path style="fill:#aeaeae;stroke:none" d="M1259 776C1260.51 776.683 1261.31 776.826 1263 777C1261.49 776.317 1260.69 776.174 1259 776z"/><path style="fill:#414141;stroke:none" d="M1263.67 777.333C1263.22 777.778 1264.28 777.722 1264.33 777.667C1264.78 777.222 1263.72 777.278 1263.67 777.333z"/><path style="fill:#8c8c8c;stroke:none" d="M1265 777L1266 778L1265 777z"/><path style="fill:#2c2c2c;stroke:none" d="M1268 778L1269 779L1268 778z"/><path style="fill:#b4b4b4;stroke:none" d="M1269 778C1270.25 778.685 1270.55 778.749 1272 779C1270.75 778.315 1270.45 778.251 1269 778z"/><path style="fill:#454545;stroke:none" d="M1272.67 779.333C1272.22 779.778 1273.28 779.722 1273.33 779.667C1273.78 779.222 1272.72 779.278 1272.67 779.333z"/><path style="fill:#747474;stroke:none" d="M1274 779L1275 780L1274 779z"/><path style="fill:#8b8b8b;stroke:none" d="M1487 779L1488 780L1487 779z"/><path style="fill:#bababa;stroke:none" d="M1278 780C1279.25 780.685 1279.55 780.749 1281 781C1279.75 780.315 1279.45 780.251 1278 780z"/><path style="fill:#c2c2c2;stroke:none" d="M1487 780L1487 783C1487.7 781.446 1487.7 781.554 1487 780z"/><path style="fill:#4c4c4c;stroke:none" d="M1281.67 781.333C1281.22 781.777 1282.28 781.722 1282.33 781.667C1282.78 781.223 1281.72 781.278 1281.67 781.333z"/><path style="fill:#a5a5a5;stroke:none" d="M1283 781L1284 782L1283 781z"/><path style="fill:#616161;stroke:none" d="M1285 782L1286 783L1285 782z"/><path style="fill:#bfbfbf;stroke:none" d="M1286.67 782.333C1286.22 782.778 1287.28 782.722 1287.33 782.667C1287.78 782.222 1286.72 782.278 1286.67 782.333z"/><path style="fill:#5a5a5a;stroke:none" d="M1288.67 783.333C1288.22 783.778 1289.28 783.722 1289.33 783.667C1289.78 783.222 1288.72 783.278 1288.67 783.333M1488 783L1488 787C1488.71 785.24 1488.71 784.759 1488 783z"/><path style="fill:#cbcbcb;stroke:none" d="M1293.67 784.333C1293.22 784.777 1294.28 784.722 1294.33 784.667C1294.78 784.222 1293.72 784.278 1293.67 784.333z"/><path style="fill:#6c6c6c;stroke:none" d="M1295.67 785.333C1295.22 785.777 1296.28 785.723 1296.33 785.667C1296.78 785.223 1295.72 785.278 1295.67 785.333z"/><path style="fill:#d0d0d0;stroke:none" d="M1299.67 786.333C1299.22 786.778 1300.28 786.722 1300.33 786.667C1300.78 786.222 1299.72 786.278 1299.67 786.333z"/><path style="fill:#6e6e6e;stroke:none" d="M1301.67 787.333C1301.22 787.778 1302.28 787.722 1302.33 787.667C1302.78 787.223 1301.72 787.277 1301.67 787.333z"/><path style="fill:#1c1c1c;stroke:none" d="M1303.67 788.333C1303.22 788.778 1304.28 788.722 1304.33 788.667C1304.78 788.223 1303.72 788.277 1303.67 788.333z"/><path style="fill:#b9b9b9;stroke:none" d="M1305 788L1306 789L1305 788z"/><path style="fill:#3c3c3c;stroke:none" d="M1306 789L1307 790L1306 789z"/><path style="fill:#6b6b6b;stroke:none" d="M1307 789L1308 790L1307 789z"/><path style="fill:#c2c2c2;stroke:none" d="M1308 789L1309 790L1308 789z"/><path style="fill:gray;stroke:none" d="M1310 790L1311 791L1310 790z"/><path style="fill:#c9c9c9;stroke:none" d="M1489 790L1489 795C1489.83 792.97 1489.83 792.03 1489 790z"/><path style="fill:#343434;stroke:none" d="M1312 791L1313 792L1312 791z"/><path style="fill:#8d8d8d;stroke:none" d="M1313 791L1314 792L1313 791z"/><path style="fill:#b6b6b6;stroke:none" d="M1315 792L1316 793L1315 792z"/><path style="fill:#363636;stroke:none" d="M1316 793L1317 794L1316 793z"/><path style="fill:#757575;stroke:none" d="M1317 793L1318 794L1317 793z"/><path style="fill:#b7b7b7;stroke:none" d="M1318 793L1319 794L1318 793z"/><path style="fill:#3c3c3c;stroke:none" d="M1319 794L1320 795L1319 794z"/><path style="fill:#616161;stroke:none" d="M1321 795L1322 796L1321 795z"/><path style="fill:#bababa;stroke:none" d="M1322 795L1323 796L1322 795z"/><path style="fill:#626262;stroke:none" d="M1490 795L1490 799C1490.71 797.24 1490.71 796.76 1490 795z"/><path style="fill:#3a3a3a;stroke:none" d="M1323 796L1324 797L1323 796z"/><path style="fill:#e6e6e6;stroke:none" d="M1324.67 796.333C1324.22 796.778 1325.28 796.722 1325.33 796.667C1325.78 796.222 1324.72 796.278 1324.67 796.333z"/><path style="fill:#818181;stroke:none" d="M1326 797L1327 798L1326 797z"/><path style="fill:#686868;stroke:none" d="M1328 798L1329 799L1328 798z"/><path style="fill:#838383;stroke:none" d="M1330 799L1331 800L1330 799z"/><path style="fill:#121212;stroke:none" d="M1491 799L1491 804C1491.83 801.97 1491.83 801.031 1491 799z"/><path style="fill:#5e5e5e;stroke:none" d="M1333 801L1334 802L1333 801z"/><path style="fill:#b9b9b9;stroke:none" d="M1334 801L1335 802L1334 801z"/><path style="fill:#3e3e3e;stroke:none" d="M1335 802L1336 803L1335 802z"/><path style="fill:#5d5d5d;stroke:none" d="M1337 803L1338 804L1337 803z"/><path style="fill:#b7b7b7;stroke:none" d="M1338 803L1339 804L1338 803z"/><path style="fill:#a0a0a0;stroke:none" d="M1339 804L1340 805L1339 804z"/><path style="fill:#a1a1a1;stroke:none" d="M1491 804L1492 805L1491 804z"/><path style="fill:#d1d1d1;stroke:none" d="M1491 805L1491 809C1491.71 807.24 1491.71 806.76 1491 805z"/><path style="fill:#606060;stroke:none" d="M1342 806L1343 807L1342 806z"/><path style="fill:#a0a0a0;stroke:none" d="M1344 807L1345 808L1344 807z"/><path style="fill:#464646;stroke:none" d="M1345 808L1346 809L1345 808z"/><path style="fill:#afafaf;stroke:none" d="M1347 809L1348 810L1347 809z"/><path style="fill:#6d6d6d;stroke:none" d="M1492 809L1492 815C1492.95 812.715 1492.95 811.285 1492 809z"/><path style="fill:#525252;stroke:none" d="M1348 810L1349 811L1348 810z"/><path style="fill:#9c9c9c;stroke:none" d="M1350 811L1351 812L1350 811z"/><path style="fill:#4e4e4e;stroke:none" d="M1351 812L1352 813L1351 812z"/><path style="fill:#d1d1d1;stroke:none" d="M1352 812L1353 813L1352 812z"/><path style="fill:#b6b6b6;stroke:none" d="M1353 813L1354 814L1353 813z"/><path style="fill:#4d4d4d;stroke:none" d="M1354 814L1355 815L1354 814z"/><path style="fill:#535353;stroke:none" d="M1355 815L1356 816L1355 815z"/><path style="fill:#171717;stroke:none" d="M1493 815L1493 820C1493.83 817.97 1493.83 817.03 1493 815z"/><path style="fill:#444;stroke:none" d="M1356 816L1357 817L1356 816z"/><path style="fill:#969696;stroke:none" d="M1357 816L1358 817L1357 816z"/><path style="fill:#9d9d9d;stroke:none" d="M1358 817L1359 818L1358 817z"/><path style="fill:#616161;stroke:none" d="M1359 818L1360 819L1359 818z"/><path style="fill:#cecece;stroke:none" d="M1360 818L1361 819L1360 818z"/><path style="fill:#d3d3d3;stroke:none" d="M1361 819L1362 820L1361 819z"/><path style="fill:#d2d2d2;stroke:none" d="M1362 820L1363 821L1362 820z"/><path style="fill:#828282;stroke:none" d="M1493 820L1494 821L1493 820z"/><path style="fill:#4d4d4d;stroke:none" d="M1363 821L1364 822L1363 821z"/><path style="fill:#d9d9d9;stroke:none" d="M1493 821L1493 828C1494.06 825.466 1494.06 823.534 1493 821z"/><path style="fill:#535353;stroke:none" d="M1364 822L1365 823L1364 822z"/><path style="fill:#484848;stroke:none" d="M1365 823L1366 824L1365 823z"/><path style="fill:#494949;stroke:none" d="M1366 824L1367 825L1366 824z"/><path style="fill:#9c9c9c;stroke:none" d="M1367 824L1368 825L1367 824z"/><path style="fill:#919191;stroke:none" d="M1368 825L1369 826L1368 825z"/><path style="fill:#8d8d8d;stroke:none" d="M1369 826L1370 827L1369 826z"/><path style="fill:#909090;stroke:none" d="M1370 827L1371 828L1370 827z"/><path style="fill:#8f8f8f;stroke:none" d="M1371 828L1372 829L1371 828z"/><path style="fill:#757575;stroke:none" d="M1494 828L1494 836C1495.16 833.23 1495.16 830.77 1494 828z"/><path style="fill:#8f8f8f;stroke:none" d="M1372 829L1373 830L1372 829z"/><path style="fill:#909090;stroke:none" d="M1373 830L1374 831L1373 830z"/><path style="fill:#8d8d8d;stroke:none" d="M1374 831L1375 832L1374 831z"/><path style="fill:#919191;stroke:none" d="M1375 832L1376 833L1375 832z"/><path style="fill:#999;stroke:none" d="M1376 833L1377 834L1376 833z"/><path style="fill:#494949;stroke:none" d="M1376 834L1377 835L1376 834z"/><path style="fill:#484848;stroke:none" d="M1377 835L1378 836L1377 835z"/><path style="fill:#535353;stroke:none" d="M1378 836L1379 837L1378 836z"/><path style="fill:#1b1b1b;stroke:none" d="M1495 836L1495 846C1496.35 842.793 1496.35 839.207 1495 836z"/><path style="fill:#4c4c4c;stroke:none" d="M1379 837L1380 838L1379 837z"/><path style="fill:#4e4e4e;stroke:none" d="M1380 838L1381 839L1380 838z"/><path style="fill:#c3c3c3;stroke:none" d="M1381 839L1382 840L1381 839z"/><path style="fill:#d0d0d0;stroke:none" d="M1382 840L1383 841L1382 840M1383 841L1384 842L1383 841z"/><path style="fill:#929292;stroke:none" d="M1384 843L1385 844L1384 843z"/><path style="fill:#9b9b9b;stroke:none" d="M1385 844L1386 845L1385 844z"/><path style="fill:#919191;stroke:none" d="M1386 845L1387 846L1386 845z"/><path style="fill:#3d3d3d;stroke:none" d="M1386 846L1387 847L1386 846z"/><path style="fill:#dedede;stroke:none" d="M1495 846L1495 859C1496.59 855.209 1496.59 849.791 1495 846z"/><path style="fill:#505050;stroke:none" d="M1387 847L1388 848L1387 847z"/><path style="fill:#d3d3d3;stroke:none" d="M1388 848L1389 849L1388 848z"/><path style="fill:#cfcfcf;stroke:none" d="M1389 849L1390 850L1389 849z"/><path style="fill:#949494;stroke:none" d="M1390 851L1391 852L1390 851z"/><path style="fill:#bfbfbf;stroke:none" d="M1391 852L1392 853L1391 852z"/><path style="fill:#585858;stroke:none" d="M1391 853L1392 854L1391 853z"/><path style="fill:#5b5b5b;stroke:none" d="M1392 854L1393 855L1392 854z"/><path style="fill:#919191;stroke:none" d="M1393 856L1394 857L1393 856z"/><path style="fill:#9b9b9b;stroke:none" d="M1394 857L1395 858L1394 857z"/><path style="fill:#2d2d2d;stroke:none" d="M1394 858L1395 859L1394 858z"/><path style="fill:#a7a7a7;stroke:none" d="M1395 859L1396 860L1395 859z"/><path style="fill:#7d7d7d;stroke:none" d="M1496 859L1496 880C1498.15 874.869 1498.15 864.131 1496 859z"/><path style="fill:#3e3e3e;stroke:none" d="M1396 861L1397 862L1396 861z"/><path style="fill:#bababa;stroke:none" d="M1397 862L1398 863L1397 862z"/><path style="fill:#5d5d5d;stroke:none" d="M1397 863L1398 864L1397 863z"/><path style="fill:#3f3f3f;stroke:none" d="M1398 865L1399 866L1398 865z"/><path style="fill:#a5a5a5;stroke:none" d="M1399 866L1400 867L1399 866z"/><path style="fill:#3b3b3b;stroke:none" d="M1400 869L1401 870L1400 869z"/><path style="fill:#b7b7b7;stroke:none" d="M1401 870L1402 871L1401 870z"/><path style="fill:#616161;stroke:none" d="M1401 871L1402 872L1401 871z"/><path style="fill:#d4d4d4;stroke:none" d="M1402 872L1403 873L1402 872z"/><path style="fill:#242424;stroke:none" d="M1402.33 873.667C1402.28 873.722 1402.22 874.778 1402.67 874.333C1402.72 874.278 1402.78 873.222 1402.33 873.667z"/><path style="fill:#979797;stroke:none" d="M1403 875L1404 876L1403 875z"/><path style="fill:#2e2e2e;stroke:none" d="M1403 876L1404 877L1403 876z"/><path style="fill:#727272;stroke:none" d="M1404 878L1405 879L1404 878z"/><path style="fill:#686868;stroke:none" d="M1405.33 880.667C1405.28 880.722 1405.22 881.778 1405.67 881.333C1405.72 881.278 1405.78 880.222 1405.33 880.667z"/><path style="fill:#1e1e1e;stroke:none" d="M1497 880L1497 919C1500.21 911.361 1498 899.271 1498 891C1498 887.297 1498.44 883.435 1497 880z"/><path style="fill:#1c1c1c;stroke:none" d="M1406.33 883.667C1406.28 883.722 1406.22 884.778 1406.67 884.333C1406.72 884.278 1406.78 883.222 1406.33 883.667z"/><path style="fill:#727272;stroke:none" d="M1407.33 885.667C1407.28 885.722 1407.22 886.778 1407.67 886.333C1407.72 886.278 1407.78 885.222 1407.33 885.667z"/><path style="fill:#d4d4d4;stroke:none" d="M1408.33 887.667C1408.28 887.722 1408.22 888.778 1408.67 888.333C1408.72 888.278 1408.78 887.222 1408.33 887.667z"/><path style="fill:#626262;stroke:none" d="M1409.33 892.667C1409.28 892.722 1409.22 893.778 1409.67 893.333C1409.72 893.278 1409.78 892.222 1409.33 892.667z"/><path style="fill:#dadada;stroke:none" d="M1410.33 894.667C1410.28 894.722 1410.22 895.778 1410.67 895.333C1410.72 895.277 1410.78 894.223 1410.33 894.667z"/><path style="fill:#8d8d8d;stroke:none" d="M1410 896L1411 897L1410 896z"/><path style="fill:#181818;stroke:none" d="M1410.33 897.667C1410.28 897.722 1410.22 898.778 1410.67 898.333C1410.72 898.277 1410.78 897.223 1410.33 897.667z"/><path style="fill:#949494;stroke:none" d="M1411 899L1412 900L1411 899z"/><path style="fill:#626262;stroke:none" d="M1411.33 900.667C1411.28 900.722 1411.22 901.778 1411.67 901.333C1411.72 901.278 1411.78 900.222 1411.33 900.667z"/><path style="fill:#d1d1d1;stroke:none" d="M1412 902L1412 905C1412.7 903.446 1412.7 903.554 1412 902z"/><path style="fill:#565656;stroke:none" d="M1412 905L1413 906L1412 905z"/><path style="fill:#626262;stroke:none" d="M1413 909L1413 913C1413.71 911.24 1413.71 910.76 1413 909z"/><path style="fill:#cbcbcb;stroke:none" d="M1414 913L1414 918C1414.83 915.969 1414.83 915.03 1414 913z"/><path style="fill:#c5c5c5;stroke:none" d="M1496 919L1497 920L1496 919z"/><path style="fill:#7b7b7b;stroke:none" d="M1496 920L1496 929C1497.26 926.006 1497.26 922.994 1496 920z"/><path style="fill:#5c5c5c;stroke:none" d="M1415 924L1415 935C1416.43 931.59 1416.43 927.41 1415 924z"/><path style="fill:#ddd;stroke:none" d="M1495 929L1495 935C1495.95 932.715 1495.95 931.285 1495 929z"/><path style="fill:#c6c6c6;stroke:none" d="M1416 935L1416 946C1417.43 942.59 1417.43 938.41 1416 935z"/><path style="fill:#181818;stroke:none" d="M1495 935L1495 940C1495.83 937.97 1495.83 937.03 1495 935z"/><path style="fill:#757575;stroke:none" d="M1494 940L1494 944C1494.71 942.24 1494.71 941.76 1494 940z"/><path style="fill:#d9d9d9;stroke:none" d="M1493 944L1493 947C1493.7 945.446 1493.7 945.554 1493 944z"/><path style="fill:#afafaf;stroke:none" d="M1417 950L1418 951L1417 950z"/><path style="fill:#707070;stroke:none" d="M1492.33 950.667C1492.28 950.722 1492.22 951.778 1492.67 951.333C1492.72 951.277 1492.78 950.222 1492.33 950.667z"/><path style="fill:#575757;stroke:none" d="M1417 951L1417 954C1417.7 952.447 1417.7 952.554 1417 951z"/><path style="fill:#393939;stroke:none" d="M1492 952L1493 953L1492 952z"/><path style="fill:#cfcfcf;stroke:none" d="M1491.33 953.667C1491.28 953.722 1491.22 954.778 1491.67 954.333C1491.72 954.277 1491.78 953.223 1491.33 953.667z"/><path style="fill:#c4c4c4;stroke:none" d="M1418.33 954.667C1418.28 954.722 1418.22 955.778 1418.67 955.333C1418.72 955.277 1418.78 954.223 1418.33 954.667z"/><path style="fill:#414141;stroke:none" d="M1491 955L1492 956L1491 955z"/><path style="fill:#797979;stroke:none" d="M1418 956L1419 957L1418 956z"/><path style="fill:silver;stroke:none" d="M1490 956L1491 957L1490 956z"/><path style="fill:#3b3b3b;stroke:none" d="M1490.33 957.667C1490.28 957.722 1490.22 958.778 1490.67 958.333C1490.72 958.278 1490.78 957.222 1490.33 957.667z"/><path style="fill:#bbb;stroke:none" d="M1419 958L1420 959L1419 958z"/><path style="fill:#2f2f2f;stroke:none" d="M1419.33 959.667C1419.28 959.722 1419.22 960.778 1419.67 960.333C1419.72 960.278 1419.78 959.222 1419.33 959.667z"/><path style="fill:#cecece;stroke:none" d="M1489 959L1490 960L1489 959z"/><path style="fill:#8c8c8c;stroke:none" d="M1489 960L1490 961L1489 960z"/><path style="fill:#a7a7a7;stroke:none" d="M1420 961L1421 962L1420 961z"/><path style="fill:#696969;stroke:none" d="M1488 962L1489 963L1488 962z"/><path style="fill:#404040;stroke:none" d="M1421 964L1422 965L1421 964z"/><path style="fill:#8e8e8e;stroke:none" d="M1487 964L1488 965L1487 964z"/><path style="fill:#a7a7a7;stroke:none" d="M1422 965L1423 966L1422 965z"/><path style="fill:#686868;stroke:none" d="M1486 966L1487 967L1486 966z"/><path style="fill:#868686;stroke:none" d="M1423 967L1424 968L1423 967z"/><path style="fill:#cdcdcd;stroke:none" d="M1485 967L1486 968L1485 967z"/><path style="fill:#2f2f2f;stroke:none" d="M1423 968L1424 969L1423 968z"/><path style="fill:#494949;stroke:none" d="M1424 969L1425 970L1424 969z"/><path style="fill:#8e8e8e;stroke:none" d="M1484 969L1485 970L1484 969z"/><path style="fill:#414141;stroke:none" d="M1425 970L1426 971L1425 970z"/><path style="fill:#b4b4b4;stroke:none" d="M1483 970L1484 971L1483 970z"/><path style="fill:#464646;stroke:none" d="M1426 971L1427 972L1426 971z"/><path style="fill:#3c3c3c;stroke:none" d="M1483 971L1484 972L1483 971z"/><path style="fill:#bcbcbc;stroke:none" d="M1427 972L1428 973L1427 972z"/><path style="fill:#4f4f4f;stroke:none" d="M1482 972L1483 973L1482 972z"/><path style="fill:#444;stroke:none" d="M1428 973L1429 974L1428 973z"/><path style="fill:#555;stroke:none" d="M1481 973L1482 974L1481 973z"/><path style="fill:#3f3f3f;stroke:none" d="M1429 974L1430 975L1429 974z"/><path style="fill:#4e4e4e;stroke:none" d="M1480 974L1481 975L1480 974z"/><path style="fill:#3c3c3c;stroke:none" d="M1430 975L1431 976L1430 975z"/><path style="fill:#909090;stroke:none" d="M1431 975L1432 976L1431 975z"/><path style="fill:#4c4c4c;stroke:none" d="M1479 975L1480 976L1479 975z"/><path style="fill:#868686;stroke:none" d="M1432 976L1433 977L1432 976z"/><path style="fill:#979797;stroke:none" d="M1477 976L1478 977L1477 976z"/><path style="fill:#c1c1c1;stroke:none" d="M1434 977L1435 978L1434 977z"/><path style="fill:#cdcdcd;stroke:none" d="M1475 977L1476 978L1475 977z"/><path style="fill:#707070;stroke:none" d="M1476 977L1477 978L1476 977z"/><path style="fill:#434343;stroke:none" d="M1435 978L1436 979L1435 978z"/><path style="fill:#cacaca;stroke:none" d="M1474 978L1475 979L1474 978z"/><path style="fill:#888;stroke:none" d="M1437.67 979.333C1437.22 979.778 1438.28 979.722 1438.33 979.667C1438.78 979.222 1437.72 979.278 1437.67 979.333z"/><path style="fill:#a3a3a3;stroke:none" d="M1472 979L1473 980L1472 979z"/><path style="fill:#484848;stroke:none" d="M1473 979L1474 980L1473 979z"/><path style="fill:#282828;stroke:none" d="M1439.67 980.333C1439.22 980.778 1440.28 980.722 1440.33 980.667C1440.78 980.222 1439.72 980.278 1439.67 980.333z"/><path style="fill:#b7b7b7;stroke:none" d="M1441 980L1442 981L1441 980z"/><path style="fill:#dedede;stroke:none" d="M1468.67 980.333C1468.22 980.777 1469.28 980.722 1469.33 980.667C1469.78 980.222 1468.72 980.278 1468.67 980.333z"/><path style="fill:#202020;stroke:none" d="M1470.67 980.333C1470.22 980.778 1471.28 980.722 1471.33 980.667C1471.78 980.222 1470.72 980.278 1470.67 980.333z"/><path style="fill:#8e8e8e;stroke:none" d="M1443 981C1444.51 981.683 1445.31 981.826 1447 982C1445.49 981.317 1444.69 981.174 1443 981z"/><path style="fill:#858585;stroke:none" d="M1466.67 981.333C1466.22 981.778 1467.28 981.722 1467.33 981.667C1467.78 981.222 1466.72 981.278 1466.67 981.333z"/><path style="fill:#242424;stroke:none" d="M1447 982C1448.25 982.685 1448.55 982.749 1450 983C1448.75 982.315 1448.45 982.251 1447 982z"/><path style="fill:#e8e8e8;stroke:none" d="M1450 982C1453.96 983.661 1458.74 983 1463 983C1459.04 981.339 1454.26 982 1450 982z"/><path style="fill:#252525;stroke:none" d="M1463 982C1464.25 982.685 1464.55 982.749 1466 983C1464.75 982.315 1464.45 982.251 1463 982z"/><path style="fill:#2e2e2e;stroke:none" d="M922 1338C925.432 1339.44 929.3 1339 933 1339C929.568 1337.56 925.7 1338 922 1338z"/><path style="fill:#ededed;stroke:none" d="M933 1338C941.367 1341.51 954.924 1339 964 1339C955.633 1335.49 942.076 1338 933 1338z"/><path style="fill:#b6b6b6;stroke:none" d="M964 1338L965 1339L964 1338z"/><path style="fill:#2e2e2e;stroke:none" d="M965 1338C967.613 1339.1 970.165 1338.99 973 1339C970.387 1337.9 967.836 1338.01 965 1338z"/><path style="fill:#4c4c4c;stroke:none" d="M915 1339L916 1340L915 1339z"/><path style="fill:#959595;stroke:none" d="M916 1339C918.052 1339.87 919.747 1339.95 922 1340C919.948 1339.13 918.253 1339.05 916 1339M973 1339C975.052 1339.87 976.747 1339.95 979 1340C976.948 1339.13 975.253 1339.05 973 1339z"/><path style="fill:#292929;stroke:none" d="M906 1340C907.506 1340.68 908.315 1340.83 910 1341C908.494 1340.32 907.685 1340.17 906 1340z"/><path style="fill:#ebebeb;stroke:none" d="M910 1340C911.769 1340.78 913.036 1340.91 915 1341C913.231 1340.22 911.964 1340.09 910 1340z"/><path style="fill:#eaeaea;stroke:none" d="M979 1340C980.506 1340.68 981.315 1340.83 983 1341C981.494 1340.32 980.685 1340.17 979 1340z"/><path style="fill:#969696;stroke:none" d="M983 1340L984 1341L983 1340z"/><path style="fill:#292929;stroke:none" d="M984 1340C985.769 1340.78 987.036 1340.91 989 1341C987.231 1340.22 985.964 1340.09 984 1340z"/><path style="fill:#8d8d8d;stroke:none" d="M902 1341C903.248 1341.68 903.548 1341.75 905 1342C903.752 1341.32 903.452 1341.25 902 1341M989 1341C990.248 1341.68 990.548 1341.75 992 1342C990.752 1341.32 990.452 1341.25 989 1341z"/><path style="fill:#222;stroke:none" d="M895 1342C896.248 1342.68 896.549 1342.75 898 1343C896.752 1342.32 896.452 1342.25 895 1342z"/><path style="fill:#e5e5e5;stroke:none" d="M898 1342C899.506 1342.68 900.315 1342.83 902 1343C900.494 1342.32 899.685 1342.17 898 1342z"/><path style="fill:#e4e4e4;stroke:none" d="M992 1342C993.248 1342.68 993.549 1342.75 995 1343C993.752 1342.32 993.452 1342.25 992 1342z"/><path style="fill:#afafaf;stroke:none" d="M995 1342L996 1343L995 1342z"/><path style="fill:#242424;stroke:none" d="M996 1342C997.248 1342.68 997.549 1342.75 999 1343C997.752 1342.32 997.452 1342.25 996 1342z"/><path style="fill:#8a8a8a;stroke:none" d="M891 1343C892.248 1343.68 892.548 1343.75 894 1344C892.752 1343.32 892.451 1343.25 891 1343z"/><path style="fill:#bbb;stroke:none" d="M894 1343L895 1344L894 1343z"/><path style="fill:#858585;stroke:none" d="M999 1343C1000.25 1343.68 1000.55 1343.75 1002 1344C1000.75 1343.32 1000.45 1343.25 999 1343z"/><path style="fill:#343434;stroke:none" d="M1002 1343L1003 1344L1002 1343z"/><path style="fill:#1d1d1d;stroke:none" d="M885 1344C886.248 1344.68 886.548 1344.75 888 1345C886.752 1344.32 886.451 1344.25 885 1344z"/><path style="fill:#e1e1e1;stroke:none" d="M888 1344C889.248 1344.68 889.548 1344.75 891 1345C889.752 1344.32 889.452 1344.25 888 1344z"/><path style="fill:#e5e5e5;stroke:none" d="M1003 1344C1004.25 1344.68 1004.55 1344.75 1006 1345C1004.75 1344.32 1004.45 1344.25 1003 1344z"/><path style="fill:#212121;stroke:none" d="M1006.67 1344.33C1006.22 1344.78 1007.28 1344.72 1007.33 1344.67C1007.78 1344.22 1006.72 1344.28 1006.67 1344.33z"/><path style="fill:#404040;stroke:none" d="M882 1345L883 1346L882 1345z"/><path style="fill:gray;stroke:none" d="M883.667 1345.33C883.222 1345.78 884.278 1345.72 884.333 1345.67C884.778 1345.22 883.722 1345.28 883.667 1345.33z"/><path style="fill:#c2c2c2;stroke:none" d="M1008 1345L1009 1346L1008 1345z"/><path style="fill:#7a7a7a;stroke:none" d="M1009.67 1345.33C1009.22 1345.78 1010.28 1345.72 1010.33 1345.67C1010.78 1345.22 1009.72 1345.28 1009.67 1345.33z"/><path style="fill:#181818;stroke:none" d="M877 1346C878.248 1346.68 878.548 1346.75 880 1347C878.752 1346.32 878.452 1346.25 877 1346z"/><path style="fill:#dcdcdc;stroke:none" d="M880.667 1346.33C880.222 1346.78 881.278 1346.72 881.333 1346.67C881.778 1346.22 880.722 1346.28 880.667 1346.33z"/><path style="fill:#dfdfdf;stroke:none" d="M1011 1346C1012.25 1346.68 1012.55 1346.75 1014 1347C1012.75 1346.32 1012.45 1346.25 1011 1346z"/><path style="fill:#1b1b1b;stroke:none" d="M1014.67 1346.33C1014.22 1346.78 1015.28 1346.72 1015.33 1346.67C1015.78 1346.22 1014.72 1346.28 1014.67 1346.33z"/><path style="fill:#7e7e7e;stroke:none" d="M875.667 1347.33C875.222 1347.78 876.278 1347.72 876.333 1347.67C876.778 1347.22 875.722 1347.28 875.667 1347.33z"/><path style="fill:#ccc;stroke:none" d="M1016 1347L1017 1348L1016 1347z"/><path style="fill:#727272;stroke:none" d="M1017.67 1347.33C1017.22 1347.78 1018.28 1347.72 1018.33 1347.67C1018.78 1347.22 1017.72 1347.28 1017.67 1347.33z"/><path style="fill:#9a9a9a;stroke:none" d="M872 1348L873 1349L872 1348z"/><path style="fill:#d9d9d9;stroke:none" d="M873.667 1348.33C873.222 1348.78 874.278 1348.72 874.333 1348.67C874.778 1348.22 873.722 1348.28 873.667 1348.33z"/><path style="fill:#d8d8d8;stroke:none" d="M1019 1348C1020.25 1348.68 1020.55 1348.75 1022 1349C1020.75 1348.32 1020.45 1348.25 1019 1348z"/><path style="fill:#6d6d6d;stroke:none" d="M868.667 1349.33C868.222 1349.78 869.278 1349.72 869.333 1349.67C869.778 1349.22 868.722 1349.28 868.667 1349.33z"/><path style="fill:#636363;stroke:none" d="M1024.67 1349.33C1024.22 1349.78 1025.28 1349.72 1025.33 1349.67C1025.78 1349.22 1024.72 1349.28 1024.67 1349.33z"/><path style="fill:#5d5d5d;stroke:none" d="M865 1350L866 1351L865 1350z"/><path style="fill:#e7e7e7;stroke:none" d="M866.667 1350.33C866.222 1350.78 867.278 1350.72 867.333 1350.67C867.778 1350.22 866.722 1350.28 866.667 1350.33z"/><path style="fill:#d8d8d8;stroke:none" d="M1026.67 1350.33C1026.22 1350.78 1027.28 1350.72 1027.33 1350.67C1027.78 1350.22 1026.72 1350.28 1026.67 1350.33z"/><path style="fill:#a2a2a2;stroke:none" d="M1028 1350L1029 1351L1028 1350z"/><path style="fill:#646464;stroke:none" d="M862 1351L863 1352L862 1351z"/><path style="fill:#a5a5a5;stroke:none" d="M863 1351L864 1352L863 1351z"/><path style="fill:#4e4e4e;stroke:none" d="M1031.67 1351.33C1031.22 1351.78 1032.28 1351.72 1032.33 1351.67C1032.78 1351.22 1031.72 1351.28 1031.67 1351.33z"/><path style="fill:#9e9e9e;stroke:none" d="M860 1352L861 1353L860 1352z"/><path style="fill:#a7a7a7;stroke:none" d="M1033.67 1352.33C1033.22 1352.78 1034.28 1352.72 1034.33 1352.67C1034.78 1352.22 1033.72 1352.28 1033.67 1352.33z"/><path style="fill:#646464;stroke:none" d="M856.667 1353.33C856.222 1353.78 857.278 1353.72 857.333 1353.67C857.778 1353.22 856.722 1353.28 856.667 1353.33z"/><path style="fill:#4c4c4c;stroke:none" d="M1037.67 1353.33C1037.22 1353.78 1038.28 1353.72 1038.33 1353.67C1038.78 1353.22 1037.72 1353.28 1037.67 1353.33z"/><path style="fill:#ccc;stroke:none" d="M854.667 1354.33C854.222 1354.78 855.278 1354.72 855.333 1354.67C855.778 1354.22 854.722 1354.28 854.667 1354.33z"/><path style="fill:#aaa;stroke:none" d="M1039.67 1354.33C1039.22 1354.78 1040.28 1354.72 1040.33 1354.67C1040.78 1354.22 1039.72 1354.28 1039.67 1354.33z"/><path style="fill:#787878;stroke:none" d="M851.667 1355.33C851.222 1355.78 852.278 1355.72 852.333 1355.67C852.778 1355.22 851.722 1355.28 851.667 1355.33z"/><path style="fill:#4c4c4c;stroke:none" d="M1043.67 1355.33C1043.22 1355.78 1044.28 1355.72 1044.33 1355.67C1044.78 1355.22 1043.72 1355.28 1043.67 1355.33z"/><path style="fill:#757575;stroke:none" d="M849 1356L850 1357L849 1356z"/><path style="fill:#c1c1c1;stroke:none" d="M1045 1356L1046 1357L1045 1356z"/><path style="fill:#474747;stroke:none" d="M846 1357L847 1358L846 1357z"/><path style="fill:#a7a7a7;stroke:none" d="M847 1357L848 1358L847 1357z"/><path style="fill:gray;stroke:none" d="M1048 1357L1049 1358L1048 1357z"/><path style="fill:#2b2b2b;stroke:none" d="M1049 1357L1050 1358L1049 1357z"/><path style="fill:#3b3b3b;stroke:none" d="M844 1358L845 1359L844 1358z"/><path style="fill:#bfbfbf;stroke:none" d="M845 1358L846 1359L845 1358z"/><path style="fill:silver;stroke:none" d="M1050 1358L1051 1359L1050 1358z"/><path style="fill:gray;stroke:none" d="M1051 1358L1052 1359L1051 1358z"/><path style="fill:#4e4e4e;stroke:none" d="M841.667 1359.33C841.222 1359.78 842.278 1359.72 842.333 1359.67C842.778 1359.22 841.722 1359.28 841.667 1359.33z"/><path style="fill:#bcbcbc;stroke:none" d="M843 1359L844 1360L843 1359z"/><path style="fill:#454545;stroke:none" d="M1053.67 1359.33C1053.22 1359.78 1054.28 1359.72 1054.33 1359.67C1054.78 1359.22 1053.72 1359.28 1053.67 1359.33z"/><path style="fill:#a7a7a7;stroke:none" d="M840 1360L841 1361L840 1360z"/><path style="fill:#bcbcbc;stroke:none" d="M1055 1360L1056 1361L1055 1360z"/><path style="fill:#3d3d3d;stroke:none" d="M1056 1360L1057 1361L1056 1360z"/><path style="fill:#828282;stroke:none" d="M838 1361L839 1362L838 1361z"/><path style="fill:#888;stroke:none" d="M1058 1361L1059 1362L1058 1361z"/><path style="fill:#2c2c2c;stroke:none" d="M1059 1361L1060 1362L1059 1361z"/><path style="fill:#a5a5a5;stroke:none" d="M836 1362L837 1363L836 1362z"/><path style="fill:#b3b3b3;stroke:none" d="M1060 1362L1061 1363L1060 1362z"/><path style="fill:#888;stroke:none" d="M1061 1362L1062 1363L1061 1362z"/><path style="fill:#818181;stroke:none" d="M834 1363L835 1364L834 1363z"/><path style="fill:#575757;stroke:none" d="M1063 1363L1064 1364L1063 1363z"/><path style="fill:#a2a2a2;stroke:none" d="M832 1364L833 1365L832 1364z"/><path style="fill:#a9a9a9;stroke:none" d="M1064.67 1364.33C1064.22 1364.78 1065.28 1364.72 1065.33 1364.67C1065.78 1364.22 1064.72 1364.28 1064.67 1364.33z"/><path style="fill:#505050;stroke:none" d="M1066 1364L1067 1365L1066 1364z"/><path style="fill:#8b8b8b;stroke:none" d="M830 1365L831 1366L830 1365z"/><path style="fill:#cbcbcb;stroke:none" d="M1067 1365L1068 1366L1067 1365z"/><path style="fill:#3b3b3b;stroke:none" d="M1068 1365L1069 1366L1068 1365z"/><path style="fill:#4b4b4b;stroke:none" d="M828 1366L829 1367L828 1366z"/><path style="fill:#b2b2b2;stroke:none" d="M1069 1366L1070 1367L1069 1366z"/><path style="fill:#4e4e4e;stroke:none" d="M1070 1366L1071 1367L1070 1366z"/><path style="fill:#363636;stroke:none" d="M826 1367L827 1368L826 1367z"/><path style="fill:#c9c9c9;stroke:none" d="M827 1367L828 1368L827 1367z"/><path style="fill:#cecece;stroke:none" d="M1071 1367L1072 1368L1071 1367z"/><path style="fill:#383838;stroke:none" d="M1072 1367L1073 1368L1072 1367z"/><path style="fill:#4c4c4c;stroke:none" d="M824 1368L825 1369L824 1368z"/><path style="fill:#adadad;stroke:none" d="M825 1368L826 1369L825 1368z"/><path style="fill:#afafaf;stroke:none" d="M1073 1368L1074 1369L1073 1368z"/><path style="fill:#838383;stroke:none" d="M1074 1368L1075 1369L1074 1368z"/><path style="fill:#cdcdcd;stroke:none" d="M823 1369L824 1370L823 1369z"/><path style="fill:#9c9c9c;stroke:none" d="M1076 1369L1077 1370L1076 1369z"/><path style="fill:#7a7a7a;stroke:none" d="M821 1370L822 1371L821 1370z"/><path style="fill:#cfcfcf;stroke:none" d="M822 1370L823 1371L822 1370z"/><path style="fill:#959595;stroke:none" d="M1078 1370L1079 1371L1078 1370z"/><path style="fill:#4b4b4b;stroke:none" d="M819 1371L820 1372L819 1371z"/><path style="fill:#a1a1a1;stroke:none" d="M1080 1371L1081 1372L1080 1371z"/><path style="fill:#8c8c8c;stroke:none" d="M818 1372L819 1373L818 1372z"/><path style="fill:#929292;stroke:none" d="M1082 1372L1083 1373L1082 1372z"/><path style="fill:#989898;stroke:none" d="M816 1373L817 1374L816 1373z"/><path style="fill:#a3a3a3;stroke:none" d="M1084 1373L1085 1374L1084 1373z"/><path style="fill:#535353;stroke:none" d="M814 1374L815 1375L814 1374z"/><path style="fill:#a3a3a3;stroke:none" d="M815 1374L816 1375L815 1374z"/><path style="fill:#909090;stroke:none" d="M1086 1374L1087 1375L1086 1374z"/><path style="fill:#545454;stroke:none" d="M813 1375L814 1376L813 1375z"/><path style="fill:#e2e2e2;stroke:none" d="M1087.67 1375.33C1087.22 1375.78 1088.28 1375.72 1088.33 1375.67C1088.78 1375.22 1087.72 1375.28 1087.67 1375.33z"/><path style="fill:#a1a1a1;stroke:none" d="M810 1377L811 1378L810 1377z"/><path style="fill:#505050;stroke:none" d="M808 1378L809 1379L808 1378z"/><path style="fill:#a3a3a3;stroke:none" d="M809 1378L810 1379L809 1378z"/><path style="fill:#585858;stroke:none" d="M807 1379L808 1380L807 1379z"/><path style="fill:#969696;stroke:none" d="M803 1382L804 1383L803 1382z"/><path style="fill:#a5a5a5;stroke:none" d="M802 1383L803 1384L802 1383z"/><path style="fill:#616161;stroke:none" d="M800 1384L801 1385L800 1384z"/><path style="fill:#5f5f5f;stroke:none" d="M799 1385L800 1386L799 1385z"/><path style="fill:#a4a4a4;stroke:none" d="M798 1386L799 1387L798 1386z"/><path style="fill:#515151;stroke:none" d="M795 1388L796 1389L795 1388z"/><path style="fill:#ababab;stroke:none" d="M794 1389L795 1390L794 1389z"/><path style="fill:#a3a3a3;stroke:none" d="M793 1390L794 1391L793 1390z"/><path style="fill:#a9a9a9;stroke:none" d="M792 1391L793 1392L792 1391z"/><path style="fill:#393939;stroke:none" d="M790 1392L791 1393L790 1392z"/><path style="fill:#a3a3a3;stroke:none" d="M791 1392L792 1393L791 1392z"/><path style="fill:#6c6c6c;stroke:none" d="M789 1393L790 1394L789 1393z"/><path style="fill:#5a5a5a;stroke:none" d="M788 1394L789 1395L788 1394z"/><path style="fill:#6a6a6a;stroke:none" d="M787 1395L788 1396L787 1395z"/><path style="fill:#5c5c5c;stroke:none" d="M786 1396L787 1397L786 1396z"/><path style="fill:#696969;stroke:none" d="M785 1397L786 1398L785 1397z"/><path style="fill:#5a5a5a;stroke:none" d="M784 1398L785 1399L784 1398z"/><path style="fill:#686868;stroke:none" d="M783 1399L784 1400L783 1399z"/><path style="fill:#5b5b5b;stroke:none" d="M782 1400L783 1401L782 1400z"/><path style="fill:#686868;stroke:none" d="M781 1401L782 1402L781 1401z"/><path style="fill:#5b5b5b;stroke:none" d="M780 1402L781 1403L780 1402z"/><path style="fill:#696969;stroke:none" d="M779 1403L780 1404L779 1403z"/><path style="fill:#5e5e5e;stroke:none" d="M778 1404L779 1405L778 1404z"/><path style="fill:#686868;stroke:none" d="M777 1405L778 1406L777 1405z"/><path style="fill:#5d5d5d;stroke:none" d="M776 1406L777 1407L776 1406z"/><path style="fill:#606060;stroke:none" d="M775 1407L776 1408L775 1407z"/><path style="fill:#585858;stroke:none" d="M774 1408L775 1409L774 1408z"/><path style="fill:#636363;stroke:none" d="M773 1409L774 1410L773 1409z"/><path style="fill:#4e4e4e;stroke:none" d="M772 1410L773 1411L772 1410z"/><path style="fill:#a5a5a5;stroke:none" d="M772 1411L773 1412L772 1411z"/><path style="fill:#acacac;stroke:none" d="M771 1412L772 1413L771 1412z"/><path style="fill:#a0a0a0;stroke:none" d="M770 1413L771 1414L770 1413z"/><path style="fill:#aeaeae;stroke:none" d="M769 1414L770 1415L769 1414z"/><path style="fill:#a3a3a3;stroke:none" d="M768 1415L769 1416L768 1415z"/><path style="fill:#2b2b2b;stroke:none" d="M767 1416L768 1417L767 1416z"/><path style="fill:#d0d0d0;stroke:none" d="M765 1419L766 1420L765 1419z"/><path style="fill:#616161;stroke:none" d="M764 1420L765 1421L764 1420z"/><path style="fill:#5d5d5d;stroke:none" d="M763 1421L764 1422L763 1421z"/><path style="fill:#999;stroke:none" d="M762 1423L763 1424L762 1423z"/><path style="fill:#a3a3a3;stroke:none" d="M761 1424L762 1425L761 1424z"/><path style="fill:#595959;stroke:none" d="M759 1427L760 1428L759 1427z"/><path style="fill:#505050;stroke:none" d="M758 1428L759 1429L758 1428z"/><path style="fill:#acacac;stroke:none" d="M758 1429L759 1430L758 1429z"/><path style="fill:#9b9b9b;stroke:none" d="M757 1430L758 1431L757 1430z"/><path style="fill:#d1d1d1;stroke:none" d="M756 1432L757 1433L756 1432z"/><path style="fill:#545454;stroke:none" d="M754 1434L755 1435L754 1434z"/><path style="fill:#b4b4b4;stroke:none" d="M754 1435L755 1436L754 1435z"/><path style="fill:#939393;stroke:none" d="M753 1436L754 1437L753 1436z"/><path style="fill:#a4a4a4;stroke:none" d="M752 1438L753 1439L752 1438z"/><path style="fill:#4d4d4d;stroke:none" d="M751 1439L752 1440L751 1439z"/><path style="fill:#8d8d8d;stroke:none" d="M750 1441L751 1442L750 1441z"/><path style="fill:#d1d1d1;stroke:none" d="M749 1443L750 1444L749 1443z"/><path style="fill:#505050;stroke:none" d="M748 1444L749 1445L748 1444z"/><path style="fill:silver;stroke:none" d="M748 1445L749 1446L748 1445z"/><path style="fill:#4d4d4d;stroke:none" d="M747 1446L748 1447L747 1446z"/><path style="fill:#cdcdcd;stroke:none" d="M747 1447L748 1448L747 1447z"/><path style="fill:#4d4d4d;stroke:none" d="M746 1448L747 1449L746 1448z"/><path style="fill:#c5c5c5;stroke:none" d="M746 1449L747 1450L746 1449z"/><path style="fill:#505050;stroke:none" d="M745 1450L746 1451L745 1450z"/><path style="fill:#c6c6c6;stroke:none" d="M745 1451L746 1452L745 1451z"/><path style="fill:#444;stroke:none" d="M744 1452L745 1453L744 1452z"/><path style="fill:#c7c7c7;stroke:none" d="M744 1453L745 1454L744 1453z"/><path style="fill:#545454;stroke:none" d="M743 1454L744 1455L743 1454z"/><path style="fill:#c4c4c4;stroke:none" d="M743 1455L744 1456L743 1455z"/><path style="fill:#414141;stroke:none" d="M742 1456L743 1457L742 1456z"/><path style="fill:#cbcbcb;stroke:none" d="M742 1457L743 1458L742 1457z"/><path style="fill:#555;stroke:none" d="M741 1458L742 1459L741 1458z"/><path style="fill:#c3c3c3;stroke:none" d="M741 1459L742 1460L741 1459z"/><path style="fill:#7c7c7c;stroke:none" d="M740 1461L741 1462L740 1461z"/><path style="fill:#878787;stroke:none" d="M739.333 1463.67C739.278 1463.72 739.222 1464.78 739.667 1464.33C739.722 1464.28 739.778 1463.22 739.333 1463.67z"/><path style="fill:#d9d9d9;stroke:none" d="M738.333 1466.67C738.278 1466.72 738.222 1467.78 738.667 1467.33C738.722 1467.28 738.778 1466.22 738.333 1466.67z"/><path style="fill:#595959;stroke:none" d="M737 1468L738 1469L737 1468z"/><path style="fill:#bbb;stroke:none" d="M737 1469L738 1470L737 1469z"/><path style="fill:#6d6d6d;stroke:none" d="M736 1471L737 1472L736 1471z"/><path style="fill:#2c2c2c;stroke:none" d="M735 1473L736 1474L735 1473z"/><path style="fill:#777;stroke:none" d="M735 1474L736 1475L735 1474z"/><path style="fill:#b0b0b0;stroke:none" d="M735 1475L736 1476L735 1475z"/><path style="fill:#646464;stroke:none" d="M734 1477L735 1478L734 1477z"/><path style="fill:#b9b9b9;stroke:none" d="M1170 1479L1171 1480L1170 1479z"/><path style="fill:#7d7d7d;stroke:none" d="M733 1480L734 1481L733 1480z"/><path style="fill:#aaa;stroke:none" d="M733 1481L734 1482L733 1481z"/><path style="fill:#212121;stroke:none" d="M732.333 1482.67C732.278 1482.72 732.222 1483.78 732.667 1483.33C732.722 1483.28 732.778 1482.22 732.333 1482.67z"/><path style="fill:#717171;stroke:none" d="M1170.33 1483.67C1170.28 1483.72 1170.22 1484.78 1170.67 1484.33C1170.72 1484.28 1170.78 1483.22 1170.33 1483.67z"/><path style="fill:#a2a2a2;stroke:none" d="M732 1484L733 1485L732 1484z"/><path style="fill:#343434;stroke:none" d="M1170 1485L1170 1492C1171.06 1489.47 1171.06 1487.53 1170 1485z"/><path style="fill:#545454;stroke:none" d="M731 1486L732 1487L731 1486z"/><path style="fill:#8c8c8c;stroke:none" d="M731.333 1487.67C731.278 1487.72 731.222 1488.78 731.667 1488.33C731.722 1488.28 731.778 1487.22 731.333 1487.67z"/><path style="fill:#202020;stroke:none" d="M730.333 1489.67C730.278 1489.72 730.222 1490.78 730.667 1490.33C730.722 1490.28 730.778 1489.22 730.333 1489.67z"/><path style="fill:#4e4e4e;stroke:none" d="M730 1491L731 1492L730 1491z"/><path style="fill:#e4e4e4;stroke:none" d="M730.333 1492.67C730.278 1492.72 730.222 1493.78 730.667 1493.33C730.722 1493.28 730.778 1492.22 730.333 1492.67z"/><path style="fill:#cdcdcd;stroke:none" d="M1169 1492L1170 1493L1169 1492z"/><path style="fill:#848484;stroke:none" d="M1169.33 1493.67C1169.28 1493.72 1169.22 1494.78 1169.67 1494.33C1169.72 1494.28 1169.78 1493.22 1169.33 1493.67z"/><path style="fill:#4c4c4c;stroke:none" d="M729 1494L730 1495L729 1494z"/><path style="fill:#8f8f8f;stroke:none" d="M729 1495L729 1498C729.696 1496.45 729.696 1496.55 729 1495z"/><path style="fill:#a0a0a0;stroke:none" d="M1169 1495L1169 1498C1169.7 1496.45 1169.7 1496.55 1169 1495z"/><path style="fill:#2b2b2b;stroke:none" d="M728 1498L728 1501C728.696 1499.45 728.696 1499.55 728 1498z"/><path style="fill:#4b4b4b;stroke:none" d="M1169 1498L1170 1499L1169 1498z"/><path style="fill:#ededed;stroke:none" d="M1168 1499L1168 1505C1168.95 1502.71 1168.95 1501.29 1168 1499z"/><path style="fill:#3d3d3d;stroke:none" d="M727 1504L728 1505L727 1504z"/><path style="fill:#999;stroke:none" d="M727 1505L727 1509C727.71 1507.24 727.71 1506.76 727 1505z"/><path style="fill:#585858;stroke:none" d="M1168 1505L1169 1506L1168 1505z"/><path style="fill:#2b2b2b;stroke:none" d="M1168 1506L1168 1510C1168.71 1508.24 1168.71 1507.76 1168 1506z"/><path style="fill:#2e2e2e;stroke:none" d="M726 1509L726 1514C726.83 1511.97 726.83 1511.03 726 1509z"/><path style="fill:#949494;stroke:none" d="M1167 1510L1167 1514C1167.71 1512.24 1167.71 1511.76 1167 1510z"/><path style="fill:#686868;stroke:none" d="M1167 1514L1168 1515L1167 1514z"/><path style="fill:#c8c8c8;stroke:none" d="M1166.33 1516.67C1166.28 1516.72 1166.22 1517.78 1166.67 1517.33C1166.72 1517.28 1166.78 1516.22 1166.33 1516.67z"/><path style="fill:#757575;stroke:none" d="M1166 1519L1167 1520L1166 1519z"/><path style="fill:#292929;stroke:none" d="M1166 1520L1166 1523C1166.7 1521.45 1166.7 1521.55 1166 1520z"/><path style="fill:#9f9f9f;stroke:none" d="M725 1521L725 1535C726.667 1531.03 726.667 1524.97 725 1521z"/><path style="fill:#c5c5c5;stroke:none" d="M1165 1523L1166 1524L1165 1523z"/><path style="fill:#868686;stroke:none" d="M1165.33 1524.67C1165.28 1524.72 1165.22 1525.78 1165.67 1525.33C1165.72 1525.28 1165.78 1524.22 1165.33 1524.67z"/><path style="fill:#3d3d3d;stroke:none" d="M1165.33 1526.67C1165.28 1526.72 1165.22 1527.78 1165.67 1527.33C1165.72 1527.28 1165.78 1526.22 1165.33 1526.67z"/><path style="fill:#1c1c1c;stroke:none" d="M1164.33 1531.67C1164.28 1531.72 1164.22 1532.78 1164.67 1532.33C1164.72 1532.28 1164.78 1531.22 1164.33 1531.67z"/><path style="fill:#a4a4a4;stroke:none" d="M1163.33 1533.67C1163.28 1533.72 1163.22 1534.78 1163.67 1534.33C1163.72 1534.28 1163.78 1533.22 1163.33 1533.67z"/><path style="fill:#cacaca;stroke:none" d="M725 1535L726 1536L725 1535z"/><path style="fill:#787878;stroke:none" d="M1163.33 1535.67C1163.28 1535.72 1163.22 1536.78 1163.67 1536.33C1163.72 1536.28 1163.78 1535.22 1163.33 1535.67z"/><path style="fill:#363636;stroke:none" d="M724 1536L724 1540C724.71 1538.24 724.71 1537.76 724 1536z"/><path style="fill:#dfdfdf;stroke:none" d="M1162.33 1537.67C1162.28 1537.72 1162.22 1538.78 1162.67 1538.33C1162.72 1538.28 1162.78 1537.22 1162.33 1537.67z"/><path style="fill:#9d9d9d;stroke:none" d="M1162 1539L1163 1540L1162 1539z"/><path style="fill:#9f9f9f;stroke:none" d="M725 1540L725 1556C726.812 1551.68 726.812 1544.32 725 1540z"/><path style="fill:#1e1e1e;stroke:none" d="M1162 1540L1162 1543C1162.7 1541.45 1162.7 1541.55 1162 1540z"/><path style="fill:#838383;stroke:none" d="M1161 1543L1161 1546C1161.7 1544.45 1161.7 1544.55 1161 1543z"/><path style="fill:#dfdfdf;stroke:none" d="M1160.33 1546.67C1160.28 1546.72 1160.22 1547.78 1160.67 1547.33C1160.72 1547.28 1160.78 1546.22 1160.33 1546.67z"/><path style="fill:#636363;stroke:none" d="M1160 1548L1161 1549L1160 1548z"/><path style="fill:#1e1e1e;stroke:none" d="M1160.33 1549.67C1160.28 1549.72 1160.22 1550.78 1160.67 1550.33C1160.72 1550.28 1160.78 1549.22 1160.33 1549.67z"/><path style="fill:#797979;stroke:none" d="M1159 1551L1159 1554C1159.7 1552.45 1159.7 1552.55 1159 1551z"/><path style="fill:#b6b6b6;stroke:none" d="M1158 1555L1159 1556L1158 1555z"/><path style="fill:#efefef;stroke:none" d="M726 1556L726 1564C727.161 1561.23 727.161 1558.77 726 1556z"/><path style="fill:#1b1b1b;stroke:none" d="M1158.33 1556.67C1158.28 1556.72 1158.22 1557.78 1158.67 1557.33C1158.72 1557.28 1158.78 1556.22 1158.33 1556.67z"/><path style="fill:#bbb;stroke:none" d="M1157 1558L1158 1559L1157 1558z"/><path style="fill:#707070;stroke:none" d="M1157.33 1559.67C1157.28 1559.72 1157.22 1560.78 1157.67 1560.33C1157.72 1560.28 1157.78 1559.22 1157.33 1559.67z"/><path style="fill:#d0d0d0;stroke:none" d="M1156.33 1561.67C1156.28 1561.72 1156.22 1562.78 1156.67 1562.33C1156.72 1562.28 1156.78 1561.22 1156.33 1561.67z"/><path style="fill:#303030;stroke:none" d="M726 1564L726 1570C726.951 1567.71 726.951 1566.29 726 1564z"/><path style="fill:#686868;stroke:none" d="M1155 1565L1155 1568C1155.7 1566.45 1155.7 1566.55 1155 1565z"/><path style="fill:#bcbcbc;stroke:none" d="M1154.33 1568.67C1154.28 1568.72 1154.22 1569.78 1154.67 1569.33C1154.72 1569.28 1154.78 1568.22 1154.33 1568.67z"/><path style="fill:#989898;stroke:none" d="M727 1570L727 1574C727.71 1572.24 727.71 1571.76 727 1570z"/><path style="fill:#6f6f6f;stroke:none" d="M1153 1572L1154 1573L1153 1572z"/><path style="fill:#373737;stroke:none" d="M1153 1573L1154 1574L1153 1573z"/><path style="fill:#ebebeb;stroke:none" d="M728 1574L728 1578C728.71 1576.24 728.71 1575.76 728 1574z"/><path style="fill:#bababa;stroke:none" d="M1152.33 1574.67C1152.28 1574.72 1152.22 1575.78 1152.67 1575.33C1152.72 1575.28 1152.78 1574.22 1152.33 1574.67z"/><path style="fill:#939393;stroke:none" d="M1151 1577L1152 1578L1151 1577z"/><path style="fill:#292929;stroke:none" d="M728 1578L728 1581C728.696 1579.45 728.696 1579.55 728 1578z"/><path style="fill:#565656;stroke:none" d="M1151 1578L1152 1579L1151 1578z"/><path style="fill:#c1c1c1;stroke:none" d="M1150.33 1579.67C1150.28 1579.72 1150.22 1580.78 1150.67 1580.33C1150.72 1580.28 1150.78 1579.22 1150.33 1579.67z"/><path style="fill:#b9b9b9;stroke:none" d="M729 1581L730 1582L729 1581z"/><path style="fill:#555;stroke:none" d="M1150 1581L1151 1582L1150 1581z"/><path style="fill:#949494;stroke:none" d="M729.333 1582.67C729.278 1582.72 729.222 1583.78 729.667 1583.33C729.722 1583.28 729.778 1582.22 729.333 1582.67z"/><path style="fill:#9d9d9d;stroke:none" d="M1149 1583L1150 1584L1149 1583z"/><path style="fill:#5a5a5a;stroke:none" d="M729 1584L730 1585L729 1584z"/><path style="fill:#303030;stroke:none" d="M1149 1584L1150 1585L1149 1584z"/><path style="fill:#e7e7e7;stroke:none" d="M730 1585L730 1588C730.696 1586.45 730.696 1586.55 730 1585z"/><path style="fill:#9c9c9c;stroke:none" d="M1148.33 1585.67C1148.28 1585.72 1148.22 1586.78 1148.67 1586.33C1148.72 1586.28 1148.78 1585.22 1148.33 1585.67z"/><path style="fill:#222;stroke:none" d="M730 1588L730 1591C730.696 1589.45 730.696 1589.55 730 1588z"/><path style="fill:#484848;stroke:none" d="M1147.33 1588.67C1147.28 1588.72 1147.22 1589.78 1147.67 1589.33C1147.72 1589.28 1147.78 1588.22 1147.33 1588.67z"/><path style="fill:silver;stroke:none" d="M1146 1590L1147 1591L1146 1590z"/><path style="fill:#898989;stroke:none" d="M731.333 1591.67C731.278 1591.72 731.222 1592.78 731.667 1592.33C731.722 1592.28 731.778 1591.22 731.333 1591.67z"/><path style="fill:#4b4b4b;stroke:none" d="M1146 1591L1147 1592L1146 1591z"/><path style="fill:#464646;stroke:none" d="M731 1593L732 1594L731 1593z"/><path style="fill:#3b3b3b;stroke:none" d="M1145.33 1593.67C1145.28 1593.72 1145.22 1594.78 1145.67 1594.33C1145.72 1594.28 1145.78 1593.22 1145.33 1593.67z"/><path style="fill:#e0e0e0;stroke:none" d="M732.333 1594.67C732.278 1594.72 732.222 1595.78 732.667 1595.33C732.722 1595.28 732.778 1594.22 732.333 1594.67z"/><path style="fill:#b0b0b0;stroke:none" d="M1144 1595L1145 1596L1144 1595z"/><path style="fill:#4c4c4c;stroke:none" d="M732 1596L733 1597L732 1596z"/><path style="fill:#2c2c2c;stroke:none" d="M1144 1596L1145 1597L1144 1596z"/><path style="fill:#ababab;stroke:none" d="M1143 1597L1144 1598L1143 1597z"/><path style="fill:#7a7a7a;stroke:none" d="M733.333 1598.67C733.278 1598.72 733.222 1599.78 733.667 1599.33C733.722 1599.28 733.778 1598.22 733.333 1598.67z"/><path style="fill:#383838;stroke:none" d="M1143 1598L1144 1599L1143 1598z"/><path style="fill:#adadad;stroke:none" d="M1142 1599L1143 1600L1142 1599z"/><path style="fill:#dcdcdc;stroke:none" d="M734.333 1600.67C734.278 1600.72 734.222 1601.78 734.667 1601.33C734.722 1601.28 734.778 1600.22 734.333 1600.67z"/><path style="fill:#2f2f2f;stroke:none" d="M1142 1600L1143 1601L1142 1600z"/><path style="fill:#b1b1b1;stroke:none" d="M1141 1601L1142 1602L1141 1601z"/><path style="fill:#545454;stroke:none" d="M734 1602L735 1603L734 1602z"/><path style="fill:#353535;stroke:none" d="M1141 1602L1142 1603L1141 1602z"/><path style="fill:#1d1d1d;stroke:none" d="M734.333 1603.67C734.278 1603.72 734.222 1604.78 734.667 1604.33C734.722 1604.28 734.778 1603.22 734.333 1603.67z"/><path style="fill:#a9a9a9;stroke:none" d="M1140 1603L1141 1604L1140 1603z"/><path style="fill:#343434;stroke:none" d="M1140 1604L1141 1605L1140 1604z"/><path style="fill:#6e6e6e;stroke:none" d="M735.333 1605.67C735.278 1605.72 735.222 1606.78 735.667 1606.33C735.722 1606.28 735.778 1605.22 735.333 1605.67z"/><path style="fill:#b5b5b5;stroke:none" d="M1139 1605L1140 1606L1139 1605z"/><path style="fill:#323232;stroke:none" d="M1139 1606L1140 1607L1139 1606z"/><path style="fill:#a5a5a5;stroke:none" d="M1138 1607L1139 1608L1138 1607z"/><path style="fill:#5d5d5d;stroke:none" d="M736 1608L737 1609L736 1608z"/><path style="fill:#363636;stroke:none" d="M1138 1608L1139 1609L1138 1608z"/><path style="fill:#b9b9b9;stroke:none" d="M1137 1609L1138 1610L1137 1609z"/><path style="fill:#a8a8a8;stroke:none" d="M737 1610L738 1611L737 1610z"/><path style="fill:#2f2f2f;stroke:none" d="M1137 1610L1138 1611L1137 1610z"/><path style="fill:#6b6b6b;stroke:none" d="M737 1611L738 1612L737 1611z"/><path style="fill:#a3a3a3;stroke:none" d="M1136 1611L1137 1612L1136 1611z"/><path style="fill:#393939;stroke:none" d="M1136 1612L1137 1613L1136 1612z"/><path style="fill:#bcbcbc;stroke:none" d="M1135 1613L1136 1614L1135 1613z"/><path style="fill:#696969;stroke:none" d="M738 1614L739 1615L738 1614z"/><path style="fill:#afafaf;stroke:none" d="M739 1615L740 1616L739 1615z"/><path style="fill:#6f6f6f;stroke:none" d="M1134 1615L1135 1616L1134 1615z"/><path style="fill:#676767;stroke:none" d="M739 1616L740 1617L739 1616z"/><path style="fill:#3e3e3e;stroke:none" d="M1133 1617L1134 1618L1133 1617z"/><path style="fill:#6b6b6b;stroke:none" d="M740 1618L741 1619L740 1618z"/><path style="fill:#a2a2a2;stroke:none" d="M1132 1618L1133 1619L1132 1618z"/><path style="fill:#919191;stroke:none" d="M741 1620L742 1621L741 1620z"/><path style="fill:#818181;stroke:none" d="M1131 1620L1132 1621L1131 1620z"/><path style="fill:#535353;stroke:none" d="M741 1621L742 1622L741 1621z"/><path style="fill:#b7b7b7;stroke:none" d="M742 1622L743 1623L742 1622z"/><path style="fill:#444;stroke:none" d="M1130 1622L1131 1623L1130 1622z"/><path style="fill:#2e2e2e;stroke:none" d="M742 1623L743 1624L742 1623z"/><path style="fill:#c1c1c1;stroke:none" d="M1129 1623L1130 1624L1129 1623z"/><path style="fill:#b8b8b8;stroke:none" d="M743 1624L744 1625L743 1624z"/><path style="fill:#c2c2c2;stroke:none" d="M1128 1624L1129 1625L1128 1624z"/><path style="fill:#4e4e4e;stroke:none" d="M743 1625L744 1626L743 1625z"/><path style="fill:#666;stroke:none" d="M1128 1625L1129 1626L1128 1625z"/><path style="fill:#c2c2c2;stroke:none" d="M744 1626L745 1627L744 1626z"/><path style="fill:#898989;stroke:none" d="M1127 1626L1128 1627L1127 1626z"/><path style="fill:#383838;stroke:none" d="M744 1627L745 1628L744 1627z"/><path style="fill:#bcbcbc;stroke:none" d="M745 1628L746 1629L745 1628z"/><path style="fill:#464646;stroke:none" d="M1126 1628L1127 1629L1126 1628z"/><path style="fill:#4c4c4c;stroke:none" d="M745 1629L746 1630L745 1629z"/><path style="fill:#bcbcbc;stroke:none" d="M1125 1629L1126 1630L1125 1629z"/><path style="fill:#b4b4b4;stroke:none" d="M746 1630L747 1631L746 1630z"/><path style="fill:#313131;stroke:none" d="M746 1631L747 1632L746 1631z"/><path style="fill:#888;stroke:none" d="M1124 1631L1125 1632L1124 1631z"/><path style="fill:#bfbfbf;stroke:none" d="M747 1632L748 1633L747 1632z"/><path style="fill:#8f8f8f;stroke:none" d="M1123 1632L1124 1633L1123 1632z"/><path style="fill:#484848;stroke:none" d="M747 1633L748 1634L747 1633z"/><path style="fill:#bfbfbf;stroke:none" d="M748 1634L749 1635L748 1634z"/><path style="fill:#434343;stroke:none" d="M1122 1634L1123 1635L1122 1634z"/><path style="fill:#404040;stroke:none" d="M748 1635L749 1636L748 1635z"/><path style="fill:#494949;stroke:none" d="M1121 1635L1122 1636L1121 1635z"/><path style="fill:#4f4f4f;stroke:none" d="M749 1636L750 1637L749 1636z"/><path style="fill:#cdcdcd;stroke:none" d="M1120 1636L1121 1637L1120 1636z"/><path style="fill:#cecece;stroke:none" d="M750 1637L751 1638L750 1637z"/><path style="fill:#cacaca;stroke:none" d="M1119 1637L1120 1638L1119 1637z"/><path style="fill:#858585;stroke:none" d="M750 1638L751 1639L750 1638z"/><path style="fill:#7f7f7f;stroke:none" d="M751 1639L752 1640L751 1639z"/><path style="fill:#8b8b8b;stroke:none" d="M1118 1639L1119 1640L1118 1639z"/><path style="fill:#2c2c2c;stroke:none" d="M751 1640L752 1641L751 1640z"/><path style="fill:#8f8f8f;stroke:none" d="M1117 1640L1118 1641L1117 1640z"/><path style="fill:#454545;stroke:none" d="M752 1641L753 1642L752 1641z"/><path style="fill:#8a8a8a;stroke:none" d="M1116 1641L1117 1642L1116 1641z"/><path style="fill:#c7c7c7;stroke:none" d="M753 1642L754 1643L753 1642z"/><path style="fill:#373737;stroke:none" d="M1116 1642L1117 1643L1116 1642z"/><path style="fill:#cdcdcd;stroke:none" d="M754 1643L755 1644L754 1643z"/><path style="fill:#525252;stroke:none" d="M1115 1643L1116 1644L1115 1643z"/><path style="fill:#7c7c7c;stroke:none" d="M754 1644L755 1645L754 1644z"/><path style="fill:#494949;stroke:none" d="M1114 1644L1115 1645L1114 1644z"/><path style="fill:#acacac;stroke:none" d="M1113 1645L1114 1646L1113 1645z"/><path style="fill:#474747;stroke:none" d="M755 1646L756 1647L755 1646z"/><path style="fill:#ababab;stroke:none" d="M1112 1646L1113 1647L1112 1646z"/><path style="fill:#484848;stroke:none" d="M756 1647L757 1648L756 1647z"/><path style="fill:#c9c9c9;stroke:none" d="M1111 1647L1112 1648L1111 1647M757 1648L758 1649L757 1648z"/><path style="fill:#d2d2d2;stroke:none" d="M1110 1648L1111 1649L1110 1648z"/><path style="fill:#c2c2c2;stroke:none" d="M758 1649L759 1650L758 1649z"/><path style="fill:#c7c7c7;stroke:none" d="M1109 1649L1110 1650L1109 1649z"/><path style="fill:#7d7d7d;stroke:none" d="M758 1650L759 1651L758 1650z"/><path style="fill:#8b8b8b;stroke:none" d="M759 1651L760 1652L759 1651z"/><path style="fill:#919191;stroke:none" d="M1108 1651L1109 1652L1108 1651z"/><path style="fill:#a4a4a4;stroke:none" d="M760 1652L761 1653L760 1652z"/><path style="fill:#959595;stroke:none" d="M1107 1652L1108 1653L1107 1652z"/><path style="fill:#4c4c4c;stroke:none" d="M760 1653L761 1654L760 1653z"/><path style="fill:#929292;stroke:none" d="M1106 1653L1107 1654L1106 1653z"/><path style="fill:#3e3e3e;stroke:none" d="M761 1654L762 1655L761 1654z"/><path style="fill:#949494;stroke:none" d="M1105 1654L1106 1655L1105 1654z"/><path style="fill:#4b4b4b;stroke:none" d="M762 1655L763 1656L762 1655z"/><path style="fill:#929292;stroke:none" d="M1104 1655L1105 1656L1104 1655z"/><path style="fill:#cacaca;stroke:none" d="M763 1656L764 1657L763 1656z"/><path style="fill:#929292;stroke:none" d="M1103 1656L1104 1657L1103 1656z"/><path style="fill:#cacaca;stroke:none" d="M764 1657L765 1658L764 1657z"/><path style="fill:#959595;stroke:none" d="M1102 1657L1103 1658L1102 1657z"/><path style="fill:#cecece;stroke:none" d="M765 1658L766 1659L765 1658z"/><path style="fill:#919191;stroke:none" d="M1101 1658L1102 1659L1101 1658z"/><path style="fill:#969696;stroke:none" d="M1100 1659L1101 1660L1100 1659z"/><path style="fill:#8f8f8f;stroke:none" d="M766 1660L767 1661L766 1660M1099 1660L1100 1661L1099 1660z"/><path style="fill:#999;stroke:none" d="M767 1661L768 1662L767 1661z"/><path style="fill:#9d9d9d;stroke:none" d="M1098 1661L1099 1662L1098 1661z"/><path style="fill:#8e8e8e;stroke:none" d="M768 1662L769 1663L768 1662z"/><path style="fill:#ccc;stroke:none" d="M1096 1662L1097 1663L1096 1662z"/><path style="fill:#414141;stroke:none" d="M1097 1662L1098 1663L1097 1662z"/><path style="fill:#999;stroke:none" d="M769 1663L770 1664L769 1663z"/><path style="fill:#cfcfcf;stroke:none" d="M1095 1663L1096 1664L1095 1663z"/><path style="fill:#8c8c8c;stroke:none" d="M770 1664L771 1665L770 1664z"/><path style="fill:#d3d3d3;stroke:none" d="M1094 1664L1095 1665L1094 1664z"/><path style="fill:#999;stroke:none" d="M771 1665L772 1666L771 1665z"/><path style="fill:#cfcfcf;stroke:none" d="M1093 1665L1094 1666L1093 1665z"/><path style="fill:#8d8d8d;stroke:none" d="M772 1666L773 1667L772 1666z"/><path style="fill:#d4d4d4;stroke:none" d="M1092 1666L1093 1667L1092 1666z"/><path style="fill:#979797;stroke:none" d="M773 1667L774 1668L773 1667z"/><path style="fill:#b3b3b3;stroke:none" d="M1091 1667L1092 1668L1091 1667z"/><path style="fill:#858585;stroke:none" d="M774 1668L775 1669L774 1668z"/><path style="fill:#4b4b4b;stroke:none" d="M1090 1668L1091 1669L1090 1668z"/><path style="fill:#989898;stroke:none" d="M775 1669L776 1670L775 1669z"/><path style="fill:#4c4c4c;stroke:none" d="M1089 1669L1090 1670L1089 1669z"/><path style="fill:#858585;stroke:none" d="M776 1670L777 1671L776 1670z"/><path style="fill:#505050;stroke:none" d="M1088 1670L1089 1671L1088 1670z"/><path style="fill:#979797;stroke:none" d="M777 1671L778 1672L777 1671z"/><path style="fill:#939393;stroke:none" d="M1086 1671L1087 1672L1086 1671z"/><path style="fill:#8b8b8b;stroke:none" d="M778 1672L779 1673L778 1672z"/><path style="fill:#8c8c8c;stroke:none" d="M1085 1672L1086 1673L1085 1672z"/><path style="fill:#818181;stroke:none" d="M779 1673L780 1674L779 1673z"/><path style="fill:#cbcbcb;stroke:none" d="M1083 1673L1084 1674L1083 1673z"/><path style="fill:#7a7a7a;stroke:none" d="M780 1674L781 1675L780 1674z"/><path style="fill:#cbcbcb;stroke:none" d="M1082 1674L1083 1675L1082 1674z"/><path style="fill:#939393;stroke:none" d="M781 1675L782 1676L781 1675z"/><path style="fill:silver;stroke:none" d="M1081 1675L1082 1676L1081 1675z"/><path style="fill:#8f8f8f;stroke:none" d="M782 1676L783 1677L782 1676z"/><path style="fill:#444;stroke:none" d="M1080 1676L1081 1677L1080 1676z"/><path style="fill:#cecece;stroke:none" d="M784 1677L785 1678L784 1677z"/><path style="fill:#8e8e8e;stroke:none" d="M1078 1677L1079 1678L1078 1677z"/><path style="fill:#cacaca;stroke:none" d="M785 1678L786 1679L785 1678z"/><path style="fill:#c2c2c2;stroke:none" d="M1076 1678L1077 1679L1076 1678z"/><path style="fill:#676767;stroke:none" d="M1077 1678L1078 1679L1077 1678z"/><path style="fill:#c3c3c3;stroke:none" d="M786 1679L787 1680L786 1679z"/><path style="fill:#c4c4c4;stroke:none" d="M1075 1679L1076 1680L1075 1679z"/><path style="fill:#4d4d4d;stroke:none" d="M787 1680L788 1681L787 1680z"/><path style="fill:#464646;stroke:none" d="M1074 1680L1075 1681L1074 1680z"/><path style="fill:#363636;stroke:none" d="M788 1681L789 1682L788 1681z"/><path style="fill:#434343;stroke:none" d="M1073 1681L1074 1682L1073 1681z"/><path style="fill:#494949;stroke:none" d="M789 1682L790 1683L789 1682z"/><path style="fill:#a2a2a2;stroke:none" d="M790 1682L791 1683L790 1682z"/><path style="fill:#898989;stroke:none" d="M1071 1682L1072 1683L1071 1682z"/><path style="fill:#8f8f8f;stroke:none" d="M791 1683L792 1684L791 1683z"/><path style="fill:#c3c3c3;stroke:none" d="M1069 1683L1070 1684L1069 1683z"/><path style="fill:#2d2d2d;stroke:none" d="M1070 1683L1071 1684L1070 1683z"/><path style="fill:#797979;stroke:none" d="M792 1684L793 1685L792 1684z"/><path style="fill:#cecece;stroke:none" d="M793 1684L794 1685L793 1684z"/><path style="fill:#444;stroke:none" d="M1068 1684L1069 1685L1068 1684z"/><path style="fill:#898989;stroke:none" d="M794 1685L795 1686L794 1685z"/><path style="fill:#818181;stroke:none" d="M1066 1685L1067 1686L1066 1685z"/><path style="fill:#494949;stroke:none" d="M795 1686L796 1687L795 1686z"/><path style="fill:#8e8e8e;stroke:none" d="M1064 1686L1065 1687L1064 1686z"/><path style="fill:#454545;stroke:none" d="M796 1687L797 1688L796 1687z"/><path style="fill:#3a3a3a;stroke:none" d="M1063 1687L1064 1688L1063 1687z"/><path style="fill:#727272;stroke:none" d="M798 1688L799 1689L798 1688z"/><path style="fill:#c7c7c7;stroke:none" d="M1060 1688L1061 1689L1060 1688z"/><path style="fill:#5e5e5e;stroke:none" d="M1061 1688L1062 1689L1061 1688z"/><path style="fill:#363636;stroke:none" d="M799 1689L800 1690L799 1689z"/><path style="fill:#c8c8c8;stroke:none" d="M800 1689L801 1690L800 1689z"/><path style="fill:#464646;stroke:none" d="M1059 1689L1060 1690L1059 1689z"/><path style="fill:#9d9d9d;stroke:none" d="M801 1690L802 1691L801 1690z"/><path style="fill:#aeaeae;stroke:none" d="M1057 1690L1058 1691L1057 1690z"/><path style="fill:#3c3c3c;stroke:none" d="M1058 1690L1059 1691L1058 1690z"/><path style="fill:#414141;stroke:none" d="M802 1691L803 1692L802 1691z"/><path style="fill:#a9a9a9;stroke:none" d="M1055 1691L1056 1692L1055 1691z"/><path style="fill:#363636;stroke:none" d="M1056 1691L1057 1692L1056 1691z"/><path style="fill:#7d7d7d;stroke:none" d="M804 1692L805 1693L804 1692z"/><path style="fill:#ccc;stroke:none" d="M805 1692L806 1693L805 1692z"/><path style="fill:#acacac;stroke:none" d="M1053 1692L1054 1693L1053 1692z"/><path style="fill:#383838;stroke:none" d="M1054 1692L1055 1693L1054 1692z"/><path style="fill:#505050;stroke:none" d="M806 1693L807 1694L806 1693z"/><path style="fill:#b5b5b5;stroke:none" d="M1051 1693L1052 1694L1051 1693z"/><path style="fill:#3a3a3a;stroke:none" d="M1052 1693L1053 1694L1052 1693z"/><path style="fill:#414141;stroke:none" d="M807 1694L808 1695L807 1694z"/><path style="fill:#b6b6b6;stroke:none" d="M808 1694L809 1695L808 1694z"/><path style="fill:#b4b4b4;stroke:none" d="M1049 1694L1050 1695L1049 1694z"/><path style="fill:#343434;stroke:none" d="M1050 1694L1051 1695L1050 1694z"/><path style="fill:#323232;stroke:none" d="M809 1695L810 1696L809 1695z"/><path style="fill:#bfbfbf;stroke:none" d="M810 1695L811 1696L810 1695z"/><path style="fill:#aeaeae;stroke:none" d="M1047 1695L1048 1696L1047 1695z"/><path style="fill:#3b3b3b;stroke:none" d="M1048 1695L1049 1696L1048 1695z"/><path style="fill:#a4a4a4;stroke:none" d="M811 1696L812 1697L811 1696z"/><path style="fill:#cfcfcf;stroke:none" d="M812 1696L813 1697L812 1696z"/><path style="fill:#b3b3b3;stroke:none" d="M1044.67 1696.33C1044.22 1696.78 1045.28 1696.72 1045.33 1696.67C1045.78 1696.22 1044.72 1696.28 1044.67 1696.33z"/><path style="fill:#303030;stroke:none" d="M1046 1696L1047 1697L1046 1696z"/><path style="fill:#7a7a7a;stroke:none" d="M813 1697L814 1698L813 1697z"/><path style="fill:#c5c5c5;stroke:none" d="M1042 1697L1043 1698L1042 1697z"/><path style="fill:#505050;stroke:none" d="M1043 1697L1044 1698L1043 1697z"/><path style="fill:#a8a8a8;stroke:none" d="M815 1698L816 1699L815 1698z"/><path style="fill:#bebebe;stroke:none" d="M1040 1698L1041 1699L1040 1698z"/><path style="fill:#696969;stroke:none" d="M1041 1698L1042 1699L1041 1698z"/><path style="fill:#2b2b2b;stroke:none" d="M816 1699L817 1700L816 1699z"/><path style="fill:#7c7c7c;stroke:none" d="M817 1699L818 1700L817 1699z"/><path style="fill:#6d6d6d;stroke:none" d="M1038 1699L1039 1700L1038 1699z"/><path style="fill:#a7a7a7;stroke:none" d="M819 1700L820 1701L819 1700z"/><path style="fill:#9e9e9e;stroke:none" d="M1035.67 1700.33C1035.22 1700.78 1036.28 1700.72 1036.33 1700.67C1036.78 1700.22 1035.72 1700.28 1035.67 1700.33z"/><path style="fill:#7d7d7d;stroke:none" d="M821 1701L822 1702L821 1701z"/><path style="fill:#a2a2a2;stroke:none" d="M1033 1701L1034 1702L1033 1701z"/><path style="fill:#414141;stroke:none" d="M1034 1701L1035 1702L1034 1701z"/><path style="fill:#2f2f2f;stroke:none" d="M823 1702L824 1703L823 1702z"/><path style="fill:#c4c4c4;stroke:none" d="M824 1702L825 1703L824 1702z"/><path style="fill:#c7c7c7;stroke:none" d="M1029.67 1702.33C1029.22 1702.78 1030.28 1702.72 1030.33 1702.67C1030.78 1702.22 1029.72 1702.28 1029.67 1702.33z"/><path style="fill:#585858;stroke:none" d="M1031 1702L1032 1703L1031 1702z"/><path style="fill:#3b3b3b;stroke:none" d="M825 1703L826 1704L825 1703z"/><path style="fill:#b0b0b0;stroke:none" d="M826 1703L827 1704L826 1703z"/><path style="fill:#757575;stroke:none" d="M1028 1703L1029 1704L1028 1703z"/><path style="fill:#313131;stroke:none" d="M827 1704L828 1705L827 1704z"/><path style="fill:#d8d8d8;stroke:none" d="M828.667 1704.33C828.223 1704.78 829.278 1704.72 829.333 1704.67C829.778 1704.22 828.722 1704.28 828.667 1704.33z"/><path style="fill:#c1c1c1;stroke:none" d="M1024.67 1704.33C1024.22 1704.78 1025.28 1704.72 1025.33 1704.67C1025.78 1704.22 1024.72 1704.28 1024.67 1704.33z"/><path style="fill:#696969;stroke:none" d="M830 1705L831 1706L830 1705z"/><path style="fill:#5f5f5f;stroke:none" d="M1022.67 1705.33C1022.22 1705.78 1023.28 1705.72 1023.33 1705.67C1023.78 1705.22 1022.72 1705.28 1022.67 1705.33z"/><path style="fill:#181818;stroke:none" d="M831.667 1706.33C831.223 1706.78 832.278 1706.72 832.333 1706.67C832.778 1706.22 831.722 1706.28 831.667 1706.33z"/><path style="fill:#a6a6a6;stroke:none" d="M833 1706L834 1707L833 1706z"/><path style="fill:#c1c1c1;stroke:none" d="M1018.67 1706.33C1018.22 1706.78 1019.28 1706.72 1019.33 1706.67C1019.78 1706.22 1018.72 1706.28 1018.67 1706.33z"/><path style="fill:#6e6e6e;stroke:none" d="M835 1707L836 1708L835 1707z"/><path style="fill:#a2a2a2;stroke:none" d="M836 1707L837 1708L836 1707z"/><path style="fill:#6d6d6d;stroke:none" d="M1015 1707C1016.25 1707.68 1016.55 1707.75 1018 1708C1016.75 1707.32 1016.45 1707.25 1015 1707z"/><path style="fill:#5a5a5a;stroke:none" d="M838 1708L839 1709L838 1708z"/><path style="fill:#e5e5e5;stroke:none" d="M839.667 1708.33C839.222 1708.78 840.278 1708.72 840.333 1708.67C840.778 1708.22 839.722 1708.28 839.667 1708.33z"/><path style="fill:#d5d5d5;stroke:none" d="M1011.67 1708.33C1011.22 1708.78 1012.28 1708.72 1012.33 1708.67C1012.78 1708.22 1011.72 1708.28 1011.67 1708.33z"/><path style="fill:#414141;stroke:none" d="M1013 1708L1014 1709L1013 1708z"/><path style="fill:#757575;stroke:none" d="M841 1709L842 1710L841 1709z"/><path style="fill:#a0a0a0;stroke:none" d="M842 1709L843 1710L842 1709z"/><path style="fill:#bfbfbf;stroke:none" d="M1008 1709L1009 1710L1008 1709z"/><path style="fill:#767676;stroke:none" d="M1009.67 1709.33C1009.22 1709.78 1010.28 1709.72 1010.33 1709.67C1010.78 1709.22 1009.72 1709.28 1009.67 1709.33z"/><path style="fill:#353535;stroke:none" d="M843.667 1710.33C843.222 1710.78 844.278 1710.72 844.333 1710.67C844.778 1710.22 843.722 1710.28 843.667 1710.33z"/><path style="fill:#b8b8b8;stroke:none" d="M845 1710L846 1711L845 1710z"/><path style="fill:#bababa;stroke:none" d="M1005 1710L1006 1711L1005 1710z"/><path style="fill:#1c1c1c;stroke:none" d="M1006.67 1710.33C1006.22 1710.78 1007.28 1710.72 1007.33 1710.67C1007.78 1710.22 1006.72 1710.28 1006.67 1710.33z"/><path style="fill:#797979;stroke:none" d="M847.667 1711.33C847.223 1711.78 848.278 1711.72 848.333 1711.67C848.778 1711.22 847.722 1711.28 847.667 1711.33z"/><path style="fill:#cecece;stroke:none" d="M849 1711L850 1712L849 1711z"/><path style="fill:#818181;stroke:none" d="M1001 1711C1002.25 1711.68 1002.55 1711.75 1004 1712C1002.75 1711.32 1002.45 1711.25 1001 1711z"/><path style="fill:#8d8d8d;stroke:none" d="M851 1712L852 1713L851 1712z"/><path style="fill:#dfdfdf;stroke:none" d="M852.667 1712.33C852.222 1712.78 853.278 1712.72 853.333 1712.67C853.778 1712.22 852.722 1712.28 852.667 1712.33z"/><path style="fill:#afafaf;stroke:none" d="M997 1712L998 1713L997 1712z"/><path style="fill:#212121;stroke:none" d="M998 1712C999.248 1712.68 999.548 1712.75 1001 1713C999.752 1712.32 999.452 1712.25 998 1712z"/><path style="fill:#8d8d8d;stroke:none" d="M854.667 1713.33C854.222 1713.78 855.278 1713.72 855.333 1713.67C855.778 1713.22 854.722 1713.28 854.667 1713.33z"/><path style="fill:#888;stroke:none" d="M992 1713C993.248 1713.68 993.549 1713.75 995 1714C993.752 1713.32 993.452 1713.25 992 1713z"/><path style="fill:#242424;stroke:none" d="M856 1714C857.248 1714.68 857.548 1714.75 859 1715C857.752 1714.32 857.451 1714.25 856 1714z"/><path style="fill:#7c7c7c;stroke:none" d="M859 1714L860 1715L859 1714z"/><path style="fill:#e3e3e3;stroke:none" d="M860.667 1714.33C860.222 1714.78 861.278 1714.72 861.333 1714.67C861.778 1714.22 860.722 1714.28 860.667 1714.33z"/><path style="fill:#e6e6e6;stroke:none" d="M984 1714C985.506 1714.68 986.315 1714.83 988 1715C986.494 1714.32 985.685 1714.17 984 1714z"/><path style="fill:#575757;stroke:none" d="M988 1714L989 1715L988 1714z"/><path style="fill:#252525;stroke:none" d="M989 1714C990.248 1714.68 990.548 1714.75 992 1715C990.752 1714.32 990.452 1714.25 989 1714z"/><path style="fill:#888;stroke:none" d="M862 1715C863.248 1715.68 863.548 1715.75 865 1716C863.752 1715.32 863.452 1715.25 862 1715z"/><path style="fill:#898989;stroke:none" d="M980 1715C981.506 1715.68 982.315 1715.83 984 1716C982.494 1715.32 981.685 1715.17 980 1715z"/><path style="fill:#292929;stroke:none" d="M865 1716C866.506 1716.68 867.315 1716.83 869 1717C867.494 1716.32 866.685 1716.17 865 1716z"/><path style="fill:#e7e7e7;stroke:none" d="M869 1716C870.506 1716.68 871.315 1716.83 873 1717C871.494 1716.32 870.685 1716.17 869 1716z"/><path style="fill:#e5e5e5;stroke:none" d="M972 1716C973.506 1716.68 974.315 1716.83 976 1717C974.494 1716.32 973.685 1716.17 972 1716z"/><path style="fill:#2a2a2a;stroke:none" d="M976 1716C977.506 1716.68 978.315 1716.83 980 1717C978.494 1716.32 977.685 1716.17 976 1716z"/><path style="fill:#979797;stroke:none" d="M873 1717C874.506 1717.68 875.315 1717.83 877 1718C875.494 1717.32 874.685 1717.17 873 1717z"/><path style="fill:#959595;stroke:none" d="M967 1717C968.769 1717.78 970.036 1717.91 972 1718C970.231 1717.22 968.964 1717.09 967 1717z"/><path style="fill:#2f2f2f;stroke:none" d="M877 1718C878.769 1718.78 880.036 1718.91 882 1719C880.231 1718.22 878.964 1718.09 877 1718z"/><path style="fill:#ededed;stroke:none" d="M882 1718C883.506 1718.68 884.315 1718.83 886 1719C884.494 1718.32 883.685 1718.17 882 1718z"/><path style="fill:#ececec;stroke:none" d="M954 1718C956.052 1718.87 957.747 1718.95 960 1719C957.948 1718.13 956.253 1718.05 954 1718z"/><path style="fill:#acacac;stroke:none" d="M960 1718L961 1719L960 1718z"/><path style="fill:#2d2d2d;stroke:none" d="M961 1718C963.052 1718.87 964.747 1718.95 967 1719C964.948 1718.13 963.253 1718.05 961 1718z"/><path style="fill:#4e4e4e;stroke:none" d="M886 1719L887 1720L886 1719z"/><path style="fill:#9d9d9d;stroke:none" d="M887 1719C889.052 1719.87 890.747 1719.95 893 1720C890.948 1719.13 889.253 1719.05 887 1719M946 1719C948.613 1720.1 951.164 1719.99 954 1720C951.387 1718.9 948.836 1719.01 946 1719z"/><path style="fill:#343434;stroke:none" d="M893 1720C896.432 1721.44 900.3 1721 904 1721C900.568 1719.56 896.7 1720 893 1720z"/><path style="fill:#ededed;stroke:none" d="M904 1720C911.649 1723.21 923.712 1721 932 1721C924.351 1717.79 912.288 1720 904 1720z"/><path style="fill:#6f6f6f;stroke:none" d="M932 1720L933 1721L932 1720z"/><path style="fill:#343434;stroke:none" d="M933 1720C936.959 1721.66 941.737 1721 946 1721C942.041 1719.34 937.264 1720 933 1720z"/></svg>